<?xml version="1.0" encoding="utf-8"?>
<!-- Generator: Adobe Illustrator 27.5.0, SVG Export Plug-In . SVG Version: 6.00 Build 0)  -->
<svg version="1.1" id="Capa_1" xmlns="http://www.w3.org/2000/svg" xmlns:xlink="http://www.w3.org/1999/xlink" x="0px" y="0px"
	 viewBox="0 0 2122 2122" style="enable-background:new 0 0 2122 2122;" xml:space="preserve">
<path style="fill:#90A667;" d="M1431.72,640.131l-10.834-1.905c16.921-85.562,31.548-174.651,9.802-260.494
	c-17.462-68.909-63.479-136.838-128.877-168.034c-63.435-30.261-125.638-22.009-180.788,7.316c-2.581-1.684-5.124-3.413-7.762-5.029
	c-71.966-44.063-159.581-54.465-237.89-21.259c-75.103,31.844-134.67,97.157-167.479,171.091
	c-36.877,83.097-44.659,173.833-40.923,263.724h-85.561L455.72,1467.547c-11.127-11.714-22.781-22.925-34.986-33.513
	c-20.365-17.671-44.214-34.448-71.181-34.592c-47.62-0.256-79.045,49.41-93.656,94.741c-28.204,87.51-29.837,183.395-4.629,271.819
	c14.748,51.729,40.926,103.627,87.094,131.24c34.654,20.727,75.444,22.074,113.644,10.509
	c19.654,44.164,42.636,86.917,68.991,127.778c10.348,16.049,36.132,1.14,25.705-15.023c-25.475-39.497-47.825-80.858-66.999-123.6
	c49.882-24.1,90.834-69.555,100.285-120.01c1.303-6.956,2.167-13.949,2.696-20.957h987.037l52.365-59.518h75.707L1431.72,640.131z
	 M909.375,625.541H716.779c-5.118-140.384,19.028-294.234,147.019-373.264c60.726-37.495,134.197-42.209,198.85-11.35
	c4.226,2.018,8.391,4.145,12.494,6.374c-59.339,46.971-106.669,115.987-132.577,178.941
	C916.528,489.508,905.437,557.71,909.375,625.541z M1228.105,625.541H958.619c-7.776-116.35,37.04-235.738,121.252-316.784
	c11.865-11.419,24.938-22.336,38.925-31.957c39.643,32.584,70.364,75.814,88.402,124.135
	C1234.004,472.729,1237.389,550.034,1228.105,625.541z M1372.141,629.653l-23.384-4.112h-70.853
	c8.105-70.586,6.012-142.478-13.956-210.938c-18.139-62.194-51.68-119.032-98.521-162.834c30.4-11.776,63.096-15.474,95.92-5.151
	c57.335,18.029,98.884,72.948,116.858,128.295C1404.961,457.296,1388.797,546.457,1372.141,629.653z"/>
<path style="fill:#B1C670;" d="M1879.568,667.502c-29.413-45.037-69.792-86.843-122.066-99.534
	c-39.211-9.521-78.539,1.255-111.583,23.586c-31.798-36.211-66.308-70.076-103.354-101.087
	c-14.597-12.222-35.766,8.733-21.052,21.047c36.271,30.363,69.993,63.406,101.043,98.704
	c-40.471,37.798-66.094,93.321-60.172,144.289c5.978,51.474,33.286,98.263,66.207,138.287
	c50.256,61.103,115.05,110.17,187.493,141.985c24.687,10.841,52.438,19.795,78.236,11.947
	c45.554-13.868,60.853-70.619,61.374-118.238C1956.703,836.547,1929.848,744.484,1879.568,667.502z"/>
<path style="fill:#B1C670;" d="M557.738,1625.201c-23.79-58.293-58.662-112.006-102.018-157.654
	c-11.127-11.714-22.781-22.925-34.986-33.513c-20.365-17.671-44.214-34.448-71.181-34.592c-47.62-0.256-79.045,49.41-93.656,94.741
	c-28.204,87.51-29.837,183.395-4.629,271.819c14.748,51.729,40.926,103.627,87.094,131.24
	c34.654,20.727,75.444,22.074,113.644,10.509c19.654,44.164,42.636,86.917,68.991,127.778c10.348,16.049,36.132,1.14,25.705-15.023
	c-25.475-39.497-47.825-80.858-66.999-123.6c49.882-24.1,90.834-69.555,100.285-120.01c1.303-6.956,2.167-13.949,2.696-20.957
	C586.026,1711.632,574.644,1666.627,557.738,1625.201z"/>
<ellipse style="fill:#004042;" cx="965.051" cy="1190.74" rx="356" ry="347.134"/>
<path style="fill:#005848;" d="M720.958,689.419c-1.919-20.748-3.387-42.157-4.179-63.878
	c-5.118-140.384,19.028-294.234,147.019-373.264c60.726-37.495,134.197-42.209,198.85-11.35c4.226,2.018,8.391,4.145,12.494,6.374
	c-59.339,46.971-106.669,115.987-132.577,178.941c-26.038,63.265-37.129,131.467-33.191,199.298h49.245
	c-7.776-116.35,37.04-235.738,121.252-316.784c11.865-11.419,24.938-22.336,38.925-31.957
	c39.643,32.584,70.364,75.814,88.402,124.135c26.805,71.794,30.19,149.099,20.906,224.606c-2.51,20.411-5.892,40.697-10.051,60.699
	c-6.48,31.16,41.335,44.482,47.844,13.189c5.06-24.328,9.152-49.029,12.007-73.888c8.105-70.586,6.012-142.478-13.956-210.938
	c-18.139-62.194-51.68-119.032-98.521-162.834c30.4-11.776,63.096-15.474,95.92-5.151c57.335,18.029,98.884,72.948,116.858,128.295
	c26.756,82.383,10.592,171.544-6.064,254.74l48.744,8.572c16.921-85.562,31.548-174.651,9.802-260.494
	c-17.462-68.909-63.479-136.838-128.877-168.034c-63.435-30.261-125.638-22.009-180.788,7.316c-2.581-1.684-5.124-3.413-7.762-5.029
	c-71.966-44.063-159.581-54.465-237.89-21.259c-75.103,31.844-134.67,97.157-167.479,171.091
	c-36.877,83.097-44.659,173.833-40.923,263.724c0.889,21.379,2.415,42.71,4.373,63.878
	C674.254,720.946,723.901,721.254,720.958,689.419z"/>
<path style="fill:#FEEDDA;" d="M830.503,1140.154l42.426-20.07l42.436-20.068c4.209-1.993,4.614-7.654,0.726-10.185l-23.44-15.291
	c8.468-11.164,16.936-22.331,25.403-33.496c16.049-21.169,32.375-42.234,48.102-63.681c16.093,22.991,32.015,46.098,48.185,69.033
	c9.778,13.868,19.586,27.708,29.583,41.415c5.004,6.865,9.944,13.781,15.123,20.514c5.963,7.75,12.443,13.479,19.045,20.49
	c6.29,6.677,15.975-1.793,12.18-9.393c-3.903-7.825-6.514-15.255-11.206-22.799c-4.468-7.179-9.199-14.192-13.827-21.269
	c-9.657-14.748-19.454-29.398-29.218-44.076c-19.132-28.76-38.426-57.457-57.008-86.575c-4.624-7.245-16.823-10.677-23.084-2.974
	c-21.739,26.75-42.289,54.607-63.118,82.071c-8.595,11.342-17.194,22.682-25.793,34.024l-29.262-19.082
	c-3.888-2.536-9.155-0.046-9.476,4.482l-6.529,91.225C821.43,1138.978,826.288,1142.147,830.503,1140.154z"/>
<path style="fill:#FEEDDA;" d="M731.453,1366.688c34.49,2.887,69.174,4.414,103.741,6.246c13.988,0.741,27.971,1.484,41.959,2.224
	l-0.492,33.754c-0.068,4.538,4.965,7.442,9.052,5.23l82.46-44.592c4.092-2.214,4.175-7.886,0.151-10.21l-81.121-46.845
	c-4.024-2.322-9.14,0.443-9.208,4.982l-0.39,26.962c-14.139-0.75-28.273-1.498-42.412-2.248
	c-27.235-1.444-54.529-3.077-81.807-4.083c10.977-25.14,21.919-50.295,32.731-75.505c6.655-15.513,13.286-31.03,19.693-46.648
	c3.249-7.927,6.616-15.825,9.691-23.825c3.474-9.026,4.882-17.469,7.357-26.68c2.309-8.577-9.535-13.417-14.168-5.975
	c-4.643,7.449-9.656,13.739-13.637,21.717c-3.825,7.676-7.357,15.5-11.006,23.262c-7.303,15.547-14.456,31.162-21.647,46.763
	c-14.387,31.218-28.887,62.387-43.576,93.464C713.884,1355.131,719.916,1365.72,731.453,1366.688z"/>
<path style="fill:#FEEDDA;" d="M1084.763,1145.945l-0.59,45.717l-0.594,45.72c-0.059,4.538,4.979,7.437,9.062,5.218l24.638-13.374
	c6.441,12.268,12.887,24.539,19.332,36.807c12.312,23.444,24.507,47.01,37.135,70.307c-28.775,3.739-57.642,6.952-86.417,10.665
	c-16.872,2.178-33.744,4.372-50.582,6.808c-8.531,1.238-17.096,2.363-25.598,3.781c-9.593,1.6-17.627,4.675-26.87,7.243
	c-8.506,2.36-6.67,15.011,2.061,15.23c8.824,0.222,16.833,1.338,25.773,0.695c8.609-0.619,17.194-1.552,25.783-2.363
	c17.925-1.69,35.825-3.564,53.734-5.388c35.089-3.576,70.222-7.618,105.398-10.2c11.567-0.845,17.905-11.805,12.77-22.251
	c-14.914-30.304-30.938-60.141-46.645-90.042c-6.29-11.985-12.585-23.966-18.88-35.948l30.748-16.692
	c4.092-2.222,4.165-7.891,0.136-10.21l-40.599-23.357l-40.594-23.359C1089.937,1138.632,1084.826,1141.406,1084.763,1145.945z"/>
<path style="fill:#005848;" d="M1646.033,837.823c3.109,18.86,31.801,10.858,28.707-7.915
	c-6.215-37.702-7.707-93.205,24.624-119.483c18.095,27.299,34.688,55.618,49.843,84.764c-3.249,2.465-6.348,5.222-9.23,8.346
	c-22.441,24.319-26.83,57.593-23.566,89.352c1.934,18.875,31.727,19.072,29.768,0c-2.334-22.728-2.061-47.956,13.223-66.538
	c1.126-1.368,2.295-2.622,3.496-3.793c4.611,9.631,9.115,19.322,13.4,29.125c7.659,17.513,33.315,2.375,25.705-15.028
	c-3.77-8.624-7.681-17.181-11.705-25.682c11.332-0.358,23.192,3.43,33.874,9.743c36.824,21.766,55.644,64.499,52.068,106.297
	c-1.632,19.089,28.151,18.979,29.774,0c5.014-58.573-29.257-119.932-85.437-140.794c-14.571-5.412-29.945-6.622-44.288-3.48
	c-15.05-29.204-31.615-57.587-49.598-85.034c49.252-10.296,88.509,40.302,114.027,75.028c11.23,15.276,37.076,0.441,25.71-15.028
	c-35.482-48.276-89.693-109.882-157.314-85.963c-19.59-27.848-40.722-54.595-63.194-80.187
	c-31.798-36.211-66.308-70.076-103.354-101.087c-14.597-12.222-35.766,8.733-21.052,21.047
	c36.271,30.363,69.993,63.406,101.043,98.704c21.321,24.238,41.382,49.537,60.052,75.844
	C1639.22,719.734,1637.519,786.149,1646.033,837.823z"/>
<path style="fill:#005848;" d="M524.262,1676.02c2.582-18.736-26.1-26.843-28.711-7.915c-5.426,39.359-19.055,94.184-59.642,110.224
	c-9.197-31.416-16.676-63.345-22.456-95.629c4.149-1.479,8.244-3.321,12.237-5.647c28.326-16.494,42.168-47.532,48.336-78.419
	c3.737-18.709-24.955-26.714-28.707-7.915c-4.492,22.485-12.297,46.031-32.448,59.22c-1.442,0.944-2.892,1.775-4.346,2.521
	c-1.361-9.441-2.601-18.905-3.663-28.396c-2.11-18.829-31.903-19.043-29.773,0c1.178,10.524,2.576,21.01,4.096,31.474
	c-10.505-2.825-20.343-9.48-28.52-18.203c-29.817-31.817-35.24-79.159-19.181-118.658c7.216-17.737-21.574-25.454-28.706-7.915
	c-22.119,54.392-7.201,124.633,41.242,160.263c12.222,8.989,26.081,14.364,40.217,15.531c5.79,32.437,13.191,64.523,22.247,96.116
	c-49.701-3.962-73.167-66.046-87.078-106.248c-6.222-17.997-34.996-10.261-28.706,7.915
	c19.474,56.297,53.545,131.267,124.816,128.148c10.431,32.382,22.653,64.166,36.492,95.265
	c19.654,44.164,42.636,86.917,68.991,127.778c10.348,16.049,36.132,1.14,25.705-15.023c-25.475-39.497-47.825-80.858-66.999-123.6
	c-13.219-29.468-24.948-59.582-35.012-90.255C495.062,1787.712,517.214,1727.099,524.262,1676.02z"/>
<path style="fill:#B1C670;" d="M1451.856,1567.751c4.078,23.84,5.579,53.264,18.183,74.329c4.365,7.289,13.69,3.315,14.64-3.963
	c3.079-23.547-6.022-50.307-9.72-73.523c-1.968-12.317-3.673-24.66-5.5-36.996c-1.545-10.411-1.657-18.59-11.489-23.596
	c-2.495-1.269-5.194-0.94-7.264,0.935c-7.834,7.111-6.334,14.195-4.975,24.346
	C1447.452,1542.144,1449.664,1554.965,1451.856,1567.751z"/>
<path style="fill:#B1C670;" d="M1412.889,1668.76c15.391,10.578,29.881-14.497,14.606-24.994
	c-23.683-16.278-42.494-37.815-65.256-54.845c-10.407-7.783-22.85,7.004-17.024,17.021
	C1360.241,1631.766,1388.684,1652.125,1412.889,1668.76z"/>
<path style="fill:#B1C670;" d="M623.687,742.91c18.762,0,18.792-29.15,0-29.15C604.934,713.76,604.9,742.91,623.687,742.91z"/>
<path style="fill:#B1C670;" d="M691.633,785.068c0.931,0.716,1.856,1.435,2.782,2.149c2.143,1.242,4.458,1.871,6.943,1.88
	c1.895,0.071,3.659-0.326,5.296-1.186c1.705-0.555,3.181-1.503,4.424-2.843c1.34-1.247,2.29-2.721,2.845-4.426
	c0.863-1.637,1.257-3.406,1.184-5.294c-0.166-1.223-0.331-2.441-0.492-3.657c-0.653-2.331-1.832-4.353-3.537-6.068
	c-0.925-0.716-1.852-1.435-2.782-2.148c-2.144-1.243-4.458-1.871-6.938-1.876c-1.89-0.076-3.659,0.321-5.296,1.181
	c-1.705,0.555-3.182,1.503-4.429,2.843c-1.34,1.247-2.285,2.721-2.84,4.426c-0.862,1.637-1.257,3.406-1.184,5.298
	c0.161,1.218,0.326,2.436,0.492,3.652C688.754,781.332,689.933,783.353,691.633,785.068z"/>
<path style="fill:#B1C670;" d="M755.579,717.034c0.872,0.672,1.744,1.347,2.616,2.02c2.013,1.169,4.19,1.759,6.519,1.764
	c1.783,0.068,3.444-0.302,4.979-1.111c1.603-0.519,2.987-1.41,4.161-2.672c1.262-1.169,2.149-2.558,2.67-4.156
	c0.809-1.542,1.184-3.201,1.116-4.982c-0.156-1.145-0.307-2.288-0.463-3.435c-0.614-2.19-1.725-4.09-3.323-5.7
	c-0.872-0.672-1.744-1.347-2.616-2.019c-2.017-1.169-4.19-1.759-6.524-1.766c-1.774-0.066-3.435,0.304-4.975,1.113
	c-1.603,0.521-2.991,1.413-4.161,2.673c-1.257,1.169-2.148,2.555-2.67,4.156c-0.809,1.542-1.184,3.203-1.116,4.979
	c0.156,1.147,0.307,2.29,0.463,3.437C752.871,713.522,753.976,715.424,755.579,717.034z"/>
<path style="fill:#B1C670;" d="M1153.874,712.308c2.276,1.318,4.726,1.981,7.357,1.99c2.631-0.01,5.082-0.672,7.357-1.99
	l0.492-0.229c2.153-1.272,3.864-2.984,5.135-5.133c1.296-2.232,1.949-4.643,1.954-7.223c-0.005-2.584-0.658-4.991-1.954-7.223
	c-1.272-2.151-2.982-3.864-5.135-5.133l-0.492-0.232c-2.275-1.318-4.726-1.983-7.357-1.988c-2.631,0.005-5.081,0.669-7.357,1.988
	c-4.434,2.594-7.216,7.447-7.216,12.587C1146.658,704.859,1149.44,709.714,1153.874,712.308z"/>
<path style="fill:#B1C670;" d="M1222.103,779.034c0.711,0.921,1.422,1.842,2.134,2.757l0.093,0.088
	c0.891,0.753,1.817,1.467,2.772,2.146l0.132,0.085c0.604,0.321,2.651,1.186,3.308,1.401c1.228,0.399,2.563,0.584,3.849,0.531
	c0.814-0.031,2.811-0.268,3.615-0.475l0.287-0.073c2.188-0.614,4.088-1.722,5.701-3.325c1.603-1.61,2.709-3.51,3.323-5.7
	c0.631-2.296,0.543-4.85-0.145-7.216c-0.054-0.246-0.075-0.464-0.147-0.726c-0.021-0.077-0.061-0.149-0.084-0.225
	c-0.059-0.431-0.116-0.861-0.175-1.291c-0.438-1.035-0.877-2.076-1.315-3.116c-0.678-0.879-1.36-1.761-2.042-2.641
	c-1.179-1.271-2.582-2.17-4.195-2.696c-1.018-0.592-2.119-0.889-3.299-0.892c-1.154-0.309-2.309-0.309-3.464,0
	c-1.179,0.003-2.28,0.3-3.298,0.892c-1.613,0.526-3.016,1.425-4.195,2.696l-0.366,0.383c-0.663,0.758-1.632,1.966-2.168,2.814
	l-0.136,0.219c-0.307,0.516-0.707,1.637-0.765,1.786c0.073-0.18-0.599,1.25-0.75,1.798c-0.18,0.648-0.2,1.323-0.292,1.993
	c-0.287,2.148-0.546,3.082,0.248,5.53C1221.187,776.864,1221.645,777.948,1222.103,779.034z"/>
<path style="fill:#B1C670;" d="M1297.328,724.503c1.369,0.721,2.845,1.05,4.424,0.989c2.967-0.132,6.046-1.109,8.112-3.36
	c2.085-2.27,3.294-4.984,3.362-8.114c0.01-0.524,0.02-1.048,0.035-1.572c0.058-2.904-1.326-6.075-3.362-8.114
	c-1.038-1.118-2.27-1.91-3.693-2.37c-1.369-0.721-2.84-1.05-4.419-0.989c-2.972,0.132-6.046,1.108-8.117,3.36
	c-2.085,2.27-3.293,4.984-3.357,8.114c-0.015,0.524-0.024,1.048-0.034,1.572c-0.063,2.904,1.321,6.075,3.362,8.114
	C1294.677,723.251,1295.91,724.043,1297.328,724.503z"/>
<path style="fill:#B1C670;" d="M1350.438,1703.364c-9.174-5.474-19.401-5.067-29.832-5.72c-12.736-0.802-25.291-1.357-38.051-1.196
	c-6.363,0.081-8.356,10.597-1.564,11.574c12.385,1.788,24.589,2.982,37.077,3.837c11.177,0.76,21.871,2.587,32.37-1.891
	C1353.191,1708.794,1352.665,1704.692,1350.438,1703.364z"/>
<path style="fill:#B1C670;" d="M1085.596,1683.403c-15.635-6.292-35.825-1.861-52.458-1.223
	c-18.689,0.714-37.374,1.449-56.063,2.124c-37.374,1.352-74.748,2.682-112.116,4.022c-74.738,2.68-149.88,3.408-224.238,11.846
	c-10.129,1.15-10.592,15.593,0,16.127c75.732,3.808,151.79-0.346,227.537-2.416c37.369-1.023,74.743-2.068,112.117-3.07
	c18.685-0.497,37.374-0.943,56.059-1.408c17.213-0.429,36.102,2.151,51.854-5.406
	C1098.01,1699.333,1093.63,1686.641,1085.596,1683.403z"/>
<path style="fill:#B1C670;" d="M575.536,1104.196c2.524-18.326,5.048-36.653,7.571-54.977c2.09-15.201,9.038-33.525,0.307-47.184
	c-3.396-5.311-10.139-6.027-14.772-1.903c-11.81,10.516-10.29,30.156-12.36,45.045c-2.558,18.322-5.111,36.638-7.664,54.955
	c-5.257,37.719-10.397,75.454-15.566,113.189c-5.023,36.66-10.075,73.313-15.069,109.975c-2.358,17.33-4.36,34.709-6.495,52.07
	c-2.129,17.291-7.703,36.87-1.008,53.544c2.314,5.764,8.76,6.448,12.473,1.632c10.358-13.459,10.553-32.28,13.062-48.57
	c2.816-18.248,5.739-36.484,8.351-54.762c5.379-37.691,10.563-75.411,15.844-113.113
	C565.339,1177.465,570.488,1140.839,575.536,1104.196z"/>
<polygon style="fill:#77894C;" points="1431.72,640.131 1420.885,638.225 1372.141,629.653 1348.757,625.541 1569.722,1755.939 
	1622.087,1696.422 1697.795,1696.422 "/>
<path style="fill:#005848;" d="M1431.008,830.31c4.487,19.764,8.979,39.53,13.471,59.299c6.685,29.422,13.364,58.84,20.054,88.26
	c8.127,35.783,16.258,71.566,24.385,107.349c8.906,39.189,17.807,78.378,26.713,117.568c8.984,39.557,17.974,79.115,26.962,118.672
	c8.38,36.889,16.76,73.778,25.14,110.663c7.103,31.272,14.207,62.541,21.311,93.812c5.077,22.338,10.153,44.672,15.23,67.011
	c2.417,10.645,4.594,21.379,7.26,31.966l0.307,1.35c2.358,10.378,18.31,5.985,15.951-4.397c-1.666-7.325-3.333-14.653-4.994-21.978
	c-4.492-19.769-8.984-39.535-13.476-59.301c-6.679-29.425-13.369-58.843-20.053-88.263c-8.127-35.783-16.258-71.566-24.385-107.347
	c-8.906-39.191-17.807-78.38-26.714-117.571c-8.984-39.557-17.973-79.115-26.962-118.672c-8.38-36.889-16.76-73.773-25.14-110.663
	c-7.104-31.271-14.212-62.54-21.316-93.812c-5.072-22.333-10.149-44.672-15.225-67.011c-2.416-10.646-4.594-21.379-7.259-31.966
	l-0.307-1.35c-2.358-10.375-18.309-5.985-15.951,4.397C1427.676,815.653,1429.342,822.981,1431.008,830.31z"/>
</svg>
