<?xml version="1.0" encoding="utf-8"?>
<!-- Generator: Adobe Illustrator 27.5.0, SVG Export Plug-In . SVG Version: 6.00 Build 0)  -->
<svg version="1.1" id="Layer_1" xmlns="http://www.w3.org/2000/svg" xmlns:xlink="http://www.w3.org/1999/xlink" x="0px" y="0px"
	 viewBox="0 0 4000 2428" style="enable-background:new 0 0 4000 2428;" xml:space="preserve">
<g>
	<rect style="fill-rule:evenodd;clip-rule:evenodd;fill:#012604;" width="4000" height="2428"/>
	<g>
		<defs>
			<path id="SVGID_1_" d="M3226.335,2428H1035.597v-172.756c0-167.157,0.001-266.999,0-434.151
				c0-127.781,60.391-233.008,165.712-293.804l381.974-220.493c144.785-83.578,231.266-133.498,376.051-217.074
				c110.682-63.89,232.022-64.213,337.344-3.417l381.974,220.491c144.786,83.58,231.266,133.502,376.051,217.077
				c110.684,63.889,171.633,168.792,171.633,290.386v440.986V2428z"/>
		</defs>
		<clipPath id="SVGID_00000146471427112059234850000004149028139770415264_">
			<use xlink:href="#SVGID_1_"  style="overflow:visible;"/>
		</clipPath>
		
			<linearGradient id="SVGID_00000021830164424928895830000011605911853284239254_" gradientUnits="userSpaceOnUse" x1="2512.6594" y1="1264.6069" x2="1814.8469" y2="2109.5063">
			<stop  offset="0" style="stop-color:#045304"/>
			<stop  offset="1" style="stop-color:#012604"/>
		</linearGradient>
		
			<rect x="1035.597" y="1025.509" style="clip-path:url(#SVGID_00000146471427112059234850000004149028139770415264_);fill:url(#SVGID_00000021830164424928895830000011605911853284239254_);" width="2190.738" height="1402.491"/>
	</g>
	<g>
		<defs>
			<path id="SVGID_00000086675955911844741150000008906707036481969083_" d="M0,2428h2106.094v-167.857
				c0-167.157-0.001-266.999,0-434.152c0-127.781-60.39-233.008-165.713-293.803l-381.971-220.495
				c-144.786-83.578-231.27-133.498-376.054-217.074c-110.68-63.889-232.021-64.213-337.343-3.417l-381.972,220.491
				c-144.79,83.579-231.269,133.502-376.054,217.077c-33.722,19.464-62.816,42.743-86.988,69.135V2428z"/>
		</defs>
		<clipPath id="SVGID_00000163769821590935643540000005327360631055163028_">
			<use xlink:href="#SVGID_00000086675955911844741150000008906707036481969083_"  style="overflow:visible;"/>
		</clipPath>
		
			<linearGradient id="SVGID_00000072271560995256787090000006170919608568355968_" gradientUnits="userSpaceOnUse" x1="1791.5771" y1="1266.8168" x2="311.4686" y2="2193.4993">
			<stop  offset="0" style="stop-color:#045304"/>
			<stop  offset="1" style="stop-color:#012604"/>
		</linearGradient>
		
			<rect y="1030.407" style="clip-path:url(#SVGID_00000163769821590935643540000005327360631055163028_);fill:url(#SVGID_00000072271560995256787090000006170919608568355968_);" width="2106.094" height="1397.593"/>
	</g>
	<g>
		<defs>
			<path id="SVGID_00000120548400906784455330000000044860449994662314_" d="M0,1.976v2423.68
				c69.439,8.426,138.914-5.987,202.544-42.714l381.973-220.491c144.788-83.58,231.268-133.502,376.052-217.077
				c110.683-63.889,171.632-168.793,171.632-290.387v-440.985c0-167.157-0.001-266.999,0-434.152
				c0-127.781-60.391-233.008-165.712-293.804L584.517,265.553C439.731,181.974,353.248,132.054,208.462,48.478
				C140.924,9.493,69.416-5.823,0,1.976"/>
		</defs>
		<clipPath id="SVGID_00000042001175569665947960000016377105994300952704_">
			<use xlink:href="#SVGID_00000120548400906784455330000000044860449994662314_"  style="overflow:visible;"/>
		</clipPath>
		
			<linearGradient id="SVGID_00000106114877520808276730000012756758995706440890_" gradientUnits="userSpaceOnUse" x1="1269.1597" y1="1166.8878" x2="20.0785" y2="1250.8193">
			<stop  offset="0" style="stop-color:#66B000"/>
			<stop  offset="1" style="stop-color:#045304"/>
		</linearGradient>
		
			<rect y="-5.823" style="clip-path:url(#SVGID_00000042001175569665947960000016377105994300952704_);fill:url(#SVGID_00000106114877520808276730000012756758995706440890_);" width="1132.2" height="2439.904"/>
	</g>
	<g>
		<defs>
			<path id="SVGID_00000145022658415075283520000016748166470177737915_" d="M0,183.897v2060.209l141.458-81.656
				c144.788-83.58,231.267-133.502,376.052-217.077c110.683-63.889,171.632-168.793,171.632-290.387v-440.985
				c0-167.157-0.001-266.999,0-434.152c0-127.781-60.391-233.008-165.712-293.804L141.458,265.553L0,183.897z"/>
		</defs>
		<clipPath id="SVGID_00000033357334064731046470000006104992413917157762_">
			<use xlink:href="#SVGID_00000145022658415075283520000016748166470177737915_"  style="overflow:visible;"/>
		</clipPath>
		
			<linearGradient id="SVGID_00000021092253558127193390000013586957935723590803_" gradientUnits="userSpaceOnUse" x1="1073.7954" y1="1214.0016" x2="-230.0705" y2="1214.0016">
			<stop  offset="0" style="stop-color:#66B000"/>
			<stop  offset="1" style="stop-color:#045304"/>
		</linearGradient>
		
			<rect y="183.897" style="clip-path:url(#SVGID_00000033357334064731046470000006104992413917157762_);fill:url(#SVGID_00000021092253558127193390000013586957935723590803_);" width="689.141" height="2060.209"/>
	</g>
	<g>
		<defs>
			<path id="SVGID_00000007402182056741452390000012652533948933038493_" d="M0,183.897v2060.209l141.458-81.656
				c144.788-83.58,231.267-133.502,376.052-217.077c110.683-63.889,171.632-168.793,171.632-290.387v-440.985
				c0-167.157-0.001-266.999,0-434.152c0-127.781-60.391-233.008-165.712-293.804L141.458,265.553L0,183.897z"/>
		</defs>
		<clipPath id="SVGID_00000114787124213349067920000008564091749803048627_">
			<use xlink:href="#SVGID_00000007402182056741452390000012652533948933038493_"  style="overflow:visible;"/>
		</clipPath>
		
			<linearGradient id="SVGID_00000070822255357203839780000002080226077122154130_" gradientUnits="userSpaceOnUse" x1="678.8459" y1="1202.8713" x2="-240.3701" y2="1233.478">
			<stop  offset="0" style="stop-color:#66B000"/>
			<stop  offset="1" style="stop-color:#045304"/>
		</linearGradient>
		
			<rect y="183.897" style="clip-path:url(#SVGID_00000114787124213349067920000008564091749803048627_);fill:url(#SVGID_00000070822255357203839780000002080226077122154130_);" width="689.141" height="2060.209"/>
	</g>
</g>
</svg>
