<?xml version="1.0" encoding="utf-8"?>
<!-- Generator: Adobe Illustrator 27.5.0, SVG Export Plug-In . SVG Version: 6.00 Build 0)  -->
<svg version="1.1" xmlns="http://www.w3.org/2000/svg" xmlns:xlink="http://www.w3.org/1999/xlink" x="0px" y="0px"
	 viewBox="0 0 500 500" style="enable-background:new 0 0 500 500;" xml:space="preserve">
<g id="BACKGROUND">
	<rect style="fill:#F5E6C9;" width="500" height="500"/>
</g>
<g id="OBJECTS">
	<g>
		<g>
			<path style="fill:#FFF7E9;" d="M86.664,231.594c-10.147,16.962-16.076,42.132,0.68,53.021
				c13.406,8.712,31.331,1.404,46.268-4.793c14.937-6.197,35.329-9.834,44.792,2.79c4.766,6.358,4.872,14.895,8.173,22.068
				c5.728,12.447,20.661,19.107,34.842,19.175c14.181,0.068,27.789-5.275,40.611-11.189
				c77.068-35.55,145.372-103.364,150.567-185.273c1.514-23.875-5.002-51.627-27.239-62.155
				c-14.663-6.942-32.196-4.385-48.084-0.432c-53.118,13.216-90.857,42.283-135.768,70.19
				C156.085,163.221,114.801,184.561,86.664,231.594z"/>
			<path style="fill:#FFF7E9;" d="M75.925,139.697c-4.666,8.069-7.535,19.278-0.62,25.598c6.99,6.389,18.556,2.926,26.909-1.822
				c10.451-5.941,19.928-13.327,29.361-20.683c12.964-10.11,25.928-20.22,38.892-30.33c10.278-8.015,20.655-16.126,28.77-26.179
				c7.426-9.199,23.557-36.186,5.654-42.102c-13.949-4.609-32.909,17.61-42.574,24.361
				C131.846,89.825,94.952,106.795,75.925,139.697z"/>
			<path style="fill:#FFF7E9;" d="M91.487,373.259c-2.697,4.131-4.963,9.655-2.022,13.593c1.237,1.656,3.214,2.677,5.25,3.256
				c9.196,2.611,18.614-2.871,26.57-8.1c15.572-10.234,31.599-20.914,41.589-36.303c16.357-25.197-14.034-19.214-26.821-11.572
				C118.956,344.352,102.33,356.654,91.487,373.259z"/>
		</g>
		<g>
			<path style="fill:#FFF7E9;" d="M304.235,332.067c-3.876,6.48-6.141,16.095,0.26,20.255c5.121,3.328,11.969,0.536,17.675-1.831
				c5.706-2.367,13.496-3.757,17.111,1.066c1.821,2.429,1.861,5.69,3.122,8.43c2.188,4.755,7.893,7.299,13.31,7.325
				c5.417,0.026,10.616-2.015,15.514-4.274c29.44-13.58,55.533-39.486,57.518-70.776c0.578-9.121-1.911-19.722-10.405-23.744
				c-5.601-2.652-12.299-1.675-18.368-0.165c-20.292,5.049-34.708,16.153-51.864,26.813
				C330.755,305.948,314.984,314.1,304.235,332.067z"/>
			<path style="fill:#FFF7E9;" d="M197.271,379.729c-2.488,4.302-4.017,10.277-0.331,13.647c3.727,3.406,9.893,1.56,14.346-0.971
				c5.572-3.167,10.624-7.105,15.653-11.027c6.911-5.39,13.823-10.78,20.735-16.17c5.479-4.273,11.011-8.597,15.338-13.957
				c3.959-4.904,12.559-19.292,3.014-22.446c-7.437-2.457-17.545,9.389-22.697,12.988
				C227.084,353.141,207.415,362.188,197.271,379.729z"/>
			<path style="fill:#FFF7E9;" d="M278.147,397.201c-1.438,2.203-2.646,5.148-1.078,7.247c0.66,0.883,1.713,1.427,2.799,1.736
				c4.903,1.392,9.924-1.531,14.165-4.318c8.302-5.456,16.846-11.15,22.172-19.354c8.72-13.434-7.482-10.244-14.299-6.169
				C292.792,381.789,283.928,388.347,278.147,397.201z"/>
		</g>
	</g>
	<g>
		<g>
			<g>
				<path style="fill:#8ACB88;" d="M265.352,176.594c1.653,4.962,3.537,10.024,6.751,14.083c1.925,2.432,4.249,4.399,6.55,6.343
					c4.286,3.621,8.571,7.242,12.857,10.862c4.024-11.717,1.895-26.331-3.756-38.936c-5.651-12.605-14.51-23.423-24.07-32.819
					c-8.562-8.416-7.902,2.636-6.651,8.946C259.136,155.682,261.895,166.221,265.352,176.594z"/>
				<path style="fill:#BEEDB9;" d="M280.849,175.17c0.591,8.769-1.021,17.529-2.198,26.255c-1.821,13.499-2.611,27.121-2.36,40.718
					c0.02,1.094,0.155,2.376,1.128,2.934c0.515,0.295,1.148,0.306,1.749,0.3c8.105-0.09,16.196-1.959,23.482-5.422
					c0.83-0.394,1.698-0.854,2.131-1.642c0.355-0.645,0.358-1.408,0.348-2.136c-0.289-21.728-4.448-43.38-12.24-63.727
					c-1.703-4.447-3.606-8.882-6.52-12.696c-3.641-4.766-9.468-9.866-15.066-12.293c0.389,3.883,4.966,9.114,6.455,13.192
					C279.464,165.323,280.516,170.221,280.849,175.17z"/>
				<g>
					<path style="fill:#62B05F;" d="M286.529,243.037l-0.262-6.051l0.967-0.045l0.213,4.91l10.775-2.657
						c1.117-0.275,2.508-0.618,3.374-1.482c1.024-1.019,1.215-2.648,1.267-3.953c0.262-6.541-1.733-12.91-3.662-19.069l0.926-0.274
						c1.953,6.232,3.972,12.676,3.703,19.373c-0.059,1.471-0.288,3.32-1.539,4.568c-1.058,1.055-2.598,1.434-3.834,1.739
						L286.529,243.037z"/>
				</g>
			</g>
			<path style="fill:#414149;" d="M259.298,28.332c3.077,2.373,6.71,1.983,9.68,4.751c2.848,2.654,4.691,7.864,5.931,13.236
				c2.265,9.809,2.913,20.656,3.209,31.373c0.383,13.851,0.923,31.332,0.151,39.347c-10.801,10.46-23.845,25.711-35.706,21.996
				c-4.279-1.34-8.278-4.527-12.23-7.688c-5.076-4.059-10.194-8.163-14.656-14.096c-1.214-1.614-2.502-4.127-1.969-6.75
				c-2.09-14.779-2.084-29.825,0.012-44.816c0.845-6.047,2.052-12.047,4.091-17.118c3.416-8.494,8.809-13.561,14.149-17.518
				C241.062,24.303,250.429,21.494,259.298,28.332z"/>
			<ellipse style="fill:#E8D6B3;" cx="259.331" cy="460.937" rx="68.372" ry="17.595"/>
			<path style="fill:#E58242;" d="M199.248,164.271c-0.257-0.058,0.148-0.453,0.298-0.239c0.15,0.215-0.024,0.503-0.192,0.706
				c-9.685,11.686-21.822,21.08-29.348,34.237c-3.523,0.527-6.997,1.39-10.36,2.573c5.371-15.64,17.472-27.05,30.011-37.932
				c1.656-1.437,3.472-2.933,5.653-3.141C197.491,160.267,199.673,162.132,199.248,164.271z"/>
			<g>
				<path style="fill:#FFC6A1;" d="M276.452,250.113c-1.404,13.504-2.808,27.008-4.212,40.512
					c-0.982,9.445-2.435,19.823-9.799,26.176c-1.927,1.663-4.303,2.995-6.881,3.128c-6.502,0.336-10.589-6.503-12.56-12.46
					c-6.758-20.421-7.177-42.382-4.881-63.755c1.12-10.427,3.114-21.342,10.009-29.492c5.37-6.347,21.952-14.255,29.249-6.083
					c3.487,3.905,1.369,13.704,1.12,18.459C278.086,234.453,277.265,242.286,276.452,250.113z"/>
				<path style="fill:#FFC6A1;" d="M256.097,402.845c-1.556,0.825-3.594,0.138-4.774-1.125c-1.181-1.263-1.701-2.961-2.16-4.604
					c-5.849-20.914-7.342-42.732-8.253-64.403c-0.443-10.533-0.332-22.241,7.058-30.074c6.101-6.467,18.02-7.096,20.099,3.088
					c1.686,8.262-2.304,20.254-3.355,28.616C261.839,357.177,258.968,380.011,256.097,402.845z"/>
			</g>
			<g>
				<path style="fill:#BEEDB9;" d="M202.431,199.105c-3.636,16.349-4.563,33.453-0.588,49.68c0.125,0.509,0.274,1.05,0.681,1.395
					c0.48,0.407,1.183,0.431,1.824,0.434c7.497,0.034,14.995-0.023,22.491-0.172c1.158-0.023,2.434-0.092,3.275-0.863
					c0.818-0.75,0.972-1.933,1.051-3.014c1.414-19.132-4.655-37.885-8.06-56.752c-1.314-7.283-2.229-14.805-0.592-22.046
					c1.272-5.628,4.907-11.957,3.686-17.792c-9.698,0.298-11.375,11.385-14.155,18.524
					C208.155,178.488,204.751,188.673,202.431,199.105z"/>
				<path style="fill:#8ACB88;" d="M242.361,164.316c0.294,4.118,0.41,8.374-1.085,12.254c-0.895,2.325-2.334,4.416-3.76,6.484
					c-2.656,3.852-5.311,7.704-7.967,11.555c-8.084-7.544-11.504-18.919-10.898-29.779c0.606-10.86,4.863-21.284,10.298-30.85
					c4.869-8.568,8.34-0.227,9.508,4.775C240.421,147.167,241.746,155.707,242.361,164.316z"/>
			</g>
			<g>
				<g>
					<g>
						<path style="fill:#FFC6A1;" d="M234.522,157.826c3.55-7.822,5.028-13.121,0.434-20.665
							c-4.594-7.544-11.02-14.284-15.604-21.832c-1.266-2.084-2.414-4.363-2.031-6.651c0.613-3.664,4.813-6.065,8.641-8.016
							c6.169-3.144,12.338-6.288,18.508-9.432c3.25-1.656,6.529-1.519,10.245-0.64c1.476,0.349,2.814,1.005,4.133,1.655
							c6.298,3.102,12.596,6.204,18.894,9.306c1.996,0.983,4.049,2.008,5.426,3.545c3.239,3.616,1.706,8.633-0.253,12.764
							c-4.601,9.702-10.935,19.255-10.98,29.705c-0.02,4.691-1.705,9.975,0.766,24.263c0.514,2.974-2.926,11.64-5.937,13.248
							c-3.076,1.642-9.497-14.343-13.128-13.807c-3.889,0.575-24.658,12.683-26.937,9.644
							C225.522,179.348,233.152,160.844,234.522,157.826z"/>
						<path style="fill:#FFDEC9;" d="M213.825,198.409c-2.521,2.506-4.827,5.665-4.821,9.151c0.003,1.983,0.843,3.874,1.877,5.583
							c3.659,6.045,9.839,10.398,16.555,13.088c6.716,2.69,13.988,3.85,21.225,4.662c3.909,0.439,7.903,0.779,11.762-0.005
							c10.793-2.194,17.934-12.903,19.179-23.443c1.245-10.541-2.106-20.998-5.417-31.087c-1.376-4.192-2.751-8.384-4.127-12.576
							c-0.229-0.697-0.484-1.433-1.064-1.904c-0.827-0.67-2.037-0.6-3.116-0.494c-6.7,0.66-13.403,1.3-20.102,1.978
							c-4.666,0.473-9.417-7.446-12.037-3.579C226.675,170.21,225.913,186.391,213.825,198.409z"/>
						<g>
							<path style="fill:#E58242;" d="M253.065,182.335c-0.316,0-0.637-0.138-0.866-0.389c-0.236-0.26-0.363-0.611-0.368-1.018
								c-0.006-0.578,0.218-1.072,0.434-1.551c0.103-0.225,0.206-0.451,0.276-0.684l0.908,0.276
								c-0.083,0.271-0.201,0.536-0.32,0.799c-0.182,0.402-0.354,0.781-0.35,1.149c0.001,0.097,0.018,0.277,0.12,0.389
								c0.057,0.063,0.155,0.089,0.196,0.075c0.078-0.028,0.167-0.215,0.164-0.649l0.949-0.007c0.006,0.835-0.26,1.355-0.788,1.547
								C253.307,182.315,253.186,182.335,253.065,182.335z"/>
						</g>
					</g>
					<path style="fill:#FFC6A1;" d="M241.946,100.892c-0.251,1.086-0.508,2.3,0.096,3.242c0.485,0.756,1.408,1.133,2.297,1.376
						c4.058,1.11,8.649,0.285,12.041-2.163c0.574-3.268,0.246-6.606-0.085-9.899c-0.623-6.211-1.246-12.422-1.869-18.633
						c-0.036-0.359-0.077-0.733-0.28-1.035c-0.264-0.393-0.748-0.587-1.212-0.729c-6.879-2.098-9.857,0.915-9.417,6.912
						C244.03,86.966,243.532,94.021,241.946,100.892z"/>
					<path style="fill:#FFB88A;" d="M255.65,87.007c-0.408-4.064-0.815-8.129-1.223-12.193c-0.036-0.359-0.077-0.733-0.28-1.035
						c-0.264-0.393-0.748-0.587-1.212-0.729c-6.879-2.098-9.857,0.915-9.417,6.911c0.186,2.535,0.234,5.076,0.152,7.613
						c0.058,0.043,0.11,0.093,0.168,0.136c1.056,0.766,2.179,1.371,3.363,1.747C250.259,90.43,253.335,88.933,255.65,87.007z"/>
				</g>
				<path style="fill:#648381;" d="M238.063,91.716c0.946,4.84,2.01,9.833,4.976,13.835c2.966,4.002,8.371,6.752,13.262,5.251
					c1.281-0.393,2.493-1.077,3.336-2.086c0.693-0.83,1.108-1.838,1.471-2.842c1.381-3.824,2.146-7.851,2.258-11.891
					c3.087,0.984,8.323,3.512,7.997,3.554c-0.343,7.853-0.076,16.203-0.419,24.057c-0.053,1.207-0.105,2.426,0.121,3.612
					c0.544,2.867,2.617,5.202,4.613,7.386c0.036-0.43-1.725,9.057-2.826,13.447c-1.101,4.39-1.848,8.983-0.906,13.394
					c-5.738,1.953-11.486,3.922-17.542,4.398c-6.057,0.476-16.421-1.086-21.057-4.832c-0.626,0.111,3.236-24.794-3.736-35.322
					c-0.697-1.052-1.449-2.105-1.766-3.316c-0.315-1.202-0.176-2.47-0.022-3.704c0.801-6.431,1.958-12.824,3.466-19.142
					c0.581-2.435,1.534-5.219,3.974-6.078C236.079,91.151,237.389,92.246,238.063,91.716z"/>
				<path style="fill:#546E6C;" d="M236.075,103.173c-0.876-0.749-1.843-1.482-2.998-1.683c-2.179-0.378-4.164,1.207-5.744,2.713
					c-0.587,0.559-1.156,1.134-1.732,1.703c-0.67,3.568-1.242,7.152-1.69,10.751c-0.154,1.234-0.292,2.501,0.022,3.704
					c0.317,1.211,1.07,2.264,1.766,3.316c6.973,10.528,7.049,35.813,7.674,35.703c0.346,0.28,0.705,0.541,1.07,0.792
					c2.138-4.222,4.275-8.445,6.413-12.667c3.361-6.64,6.806-13.649,6.398-21.003C246.81,118.5,242.28,108.482,236.075,103.173z"/>
				<path style="fill:#546E6C;" d="M274.423,138.844c-1.096-3.277-1.801-6.636-1.816-10.036c-0.725-1.116-1.294-2.302-1.541-3.601
					c-0.225-1.187-0.173-2.405-0.121-3.612c0.287-6.56,0.151-13.464,0.298-20.139c-0.908-0.714-1.82-1.423-2.747-2.114
					c-1.565-1.166-3.461-2.35-5.362-2.123c-0.336,2.944-1.013,5.854-2.025,8.656c-0.363,1.004-0.778,2.012-1.471,2.842
					c-0.843,1.009-2.056,1.693-3.336,2.086c-1.028,0.316-2.079,0.434-3.125,0.401c-1.391,4.294-2.061,8.803-1.812,12.715
					c0.467,7.35,4.718,13.886,8.842,20.066c3.525,5.282,7.05,10.564,10.575,15.845c0.388-0.132,0.777-0.263,1.165-0.395
					c-0.942-4.412-0.195-9.004,0.906-13.394C273.32,144.177,273.906,141.395,274.423,138.844z"/>
			</g>
			<g>
				<path style="fill:#648381;" d="M242.558,433.277c-1.148,10.427,0.264,21.086,4.092,30.9c5.521,2.501,11.561,3.041,17.662,3.6
					c3.206,0.294,6.901,0.421,9.137-1.786c-0.197-2.903-0.229-13.296-0.141-15.366c-2.477-1.978-5.553-3.337-8.532-4.551
					C256.658,442.765,249.062,438.934,242.558,433.277z"/>
				<path style="fill:#FFDEC9;" d="M207.226,212.58c-2.408,12.472,0.946,25.195,4.276,37.432
					c4.384,16.11,8.769,32.219,13.153,48.329c2.523,9.271,6.059,19.725,15.204,23.501c3.744,1.546,8.625,1.483,11.393-1.424
					c2.177-2.286,2.492-5.638,2.646-8.725c0.873-17.565,0.125-35.193-2.233-52.61c-2.459-18.163-6.657-36.05-10.849-53.906
					c-1.606-6.839-3.234-13.743-6.365-20.069c-3.872-7.813-13.979,3.615-17.283,7.406
					C212.162,198.256,208.647,205.217,207.226,212.58z"/>
				<path style="fill:#FFDEC9;" d="M228.365,356.017c1.153,8.04,4.571,15.571,7.53,23.16c4.712,12.084,8.329,24.569,10.798,37.268
					c0.492,2.53,1.019,5.226,2.866,7.079c1.847,1.853,5.515,2.237,6.984,0.074c0.714-1.051,0.732-2.384,0.726-3.636
					c-0.142-30.637-0.287-61.331-3.461-91.797c-0.378-3.627-0.799-7.289-0.341-10.913c0.224-1.773,0.653-3.597,0.156-5.314
					c-3.038-10.495-22.476-10.755-24.294,0.762c-1.007,6.382,0.136,13.232-0.383,19.711
					C228.318,340.262,227.24,348.17,228.365,356.017z"/>
				<path style="fill:#FFC6A1;" d="M257.236,412.93c-1.107-0.186-2.187-0.697-2.954-1.466c-1.847-1.853-2.374-4.55-2.866-7.079
					c-2.469-12.699-6.086-25.184-10.798-37.268c-2.959-7.589-6.377-15.12-7.53-23.16c-1.125-7.847-0.047-15.755,0.582-23.604
					c0.519-6.479-0.624-13.329,0.383-19.711c0.054-0.34,0.125-0.668,0.209-0.988c-2.209-4.144-3.666-8.896-4.884-13.373
					c-4.384-16.11-8.769-32.22-13.153-48.329c-3.33-12.237-6.684-24.96-4.276-37.432c0.065-0.338,0.14-0.674,0.214-1.011
					c-2.358,4.071-4.052,8.493-4.936,13.072c-2.408,12.472,0.946,25.195,4.276,37.432c4.384,16.11,8.769,32.22,13.153,48.329
					c1.219,4.478,2.676,9.229,4.884,13.373c-0.084,0.32-0.155,0.648-0.209,0.988c-1.007,6.382,0.136,13.232-0.383,19.711
					c-0.629,7.849-1.708,15.757-0.582,23.604c1.153,8.04,4.571,15.571,7.53,23.16c4.712,12.084,8.329,24.569,10.798,37.268
					c0.492,2.53,1.019,5.226,2.866,7.079c1.847,1.853,5.515,2.237,6.984,0.074c0.714-1.051,0.732-2.384,0.726-3.636
					C257.259,417.619,257.248,415.274,257.236,412.93z"/>
				<path style="fill:#FFDEC9;" d="M243.229,434.395c0.476,1.582,1.558,2.944,2.025,4.529c0.778,2.642-0.125,5.883,1.783,7.919
					c0.643,0.686,1.523,1.118,2.397,1.502c6.814,2.993,14.572,3.985,21.989,2.81c0.55-0.087,1.146-0.211,1.504-0.624
					c0.527-0.607,0.292-1.52-0.045-2.237c-1.821-3.878-5.66-6.471-8.305-9.878c-6.786-8.738-4.471-19.869-6.171-29.945
					c-0.697-4.135-4.602-9.081-9.009-5.398c-3.222,2.693-5.353,9.837-4.898,13.663c0.415,3.496,1.021,5.525-0.001,9.07
					C243.692,428.605,242.347,431.458,243.229,434.395z"/>
				<path style="fill:#FFC6A1;" d="M269.547,443.709c-5.033-0.157-10.028-1.259-14.599-3.267c-0.874-0.384-1.755-0.815-2.397-1.502
					c-1.908-2.037-1.005-5.277-1.783-7.919c-0.467-1.585-1.549-2.947-2.025-4.529c-0.883-2.937,0.463-5.79,1.269-8.588
					c1.022-3.545,0.416-5.573,0.001-9.07c-0.211-1.779,0.142-4.273,0.898-6.705c-0.495,0.21-1,0.517-1.513,0.946
					c-3.222,2.693-5.353,9.837-4.898,13.663c0.415,3.496,1.021,5.525-0.001,9.07c-0.806,2.798-2.152,5.651-1.269,8.588
					c0.476,1.582,1.558,2.944,2.025,4.529c0.778,2.642-0.125,5.883,1.783,7.919c0.643,0.686,1.523,1.118,2.398,1.502
					c6.814,2.993,14.572,3.985,21.989,2.81c0.55-0.087,1.146-0.211,1.504-0.624c0.527-0.607,0.292-1.52-0.045-2.237
					C272.075,446.574,270.869,445.107,269.547,443.709z"/>
				<path style="fill:#575761;" d="M250.908,443.009c2.44-1.826,5.218-3.337,8.258-3.841c3.039-0.504,6.37,0.113,8.645,2.097
					c1.641,1.431,2.608,3.423,3.899,5.155c0.686,0.921,1.498,1.839,1.646,2.966c0.201,1.531-0.949,3.004-2.385,3.702
					c-1.436,0.698-3.1,0.779-4.704,0.779c-5.277,0.001-10.573-0.735-15.566-2.372c-1.737-0.57-5.07-1.116-4.426-3.444
					C246.83,446.045,249.295,444.216,250.908,443.009z"/>
				<path style="fill:#575761;" d="M246.366,436.716c-0.057,1.227-0.182,2.481-0.726,3.595c-0.6-1.362-1.357-2.659-2.253-3.86
					c-0.486-0.651-1.019-1.283-1.34-2.024c-0.353-0.815-0.43-1.717-0.417-2.602c0.017-1.135,0.949-8.016,3.576-5.672
					c0.883,0.788,0.855,3.761,0.977,4.862C246.391,432.907,246.453,434.815,246.366,436.716z"/>
				<path style="fill:#575761;" d="M260.24,419.102c-0.168,2.444-0.053,4.904,0.343,7.32c-5.038,1.931-11.008,1.399-15.56-1.387
					c-0.182-0.111-0.37-0.234-0.467-0.419c-0.112-0.213-0.085-0.466-0.061-0.704c0.079-0.801-0.676-4.504-0.321-4.905
					c0.509-0.574,4.233,0.26,5.071,0.313C250.203,419.379,260.199,419.695,260.24,419.102z"/>
			</g>
			<g>
				<path style="fill:#546E6C;" d="M225.482,181.812c17.558,5.394,36.176,10.842,54.186,6.798
					c2.426,5.106,3.195,10.588,3.677,16.195c1.43,16.614,2.859,33.362,0.818,49.939c-1.451,11.789-4.991,25.8-7.98,37.327
					c-0.211,0.815-6.139,3.798-10.199,4.423c-6.06,0.932-11.621,2.161-14.886-3.265c-4.089-6.793-7.532-14.059-11.072-21.13
					c-7.114-14.213-13.694-28.676-19.721-43.352c-1.099,25.576,2.353,50.771,12.219,74.473c-7.702-3.71-14.329-8.844-20.009-15.069
					c-9.466-10.373-5.912-25.939-7.41-39.705c-0.587-5.4-1.176-10.823-0.96-16.254c0.301-7.588,2.165-15.043,4.237-22.381
					C211.315,199.425,217.048,188.908,225.482,181.812z"/>
				<g>
					<path style="fill:#325754;" d="M276.597,224.938c-5.029-1.8-8.757-5.303-9.732-9.143l-0.078-0.324
						c-0.102-0.437-0.198-0.849-0.421-1.224c-0.25-0.42-0.656-0.796-1.085-1.193c-0.267-0.247-0.534-0.495-0.767-0.756
						c-1.588-1.779-1.702-4.247-0.329-7.135c1.166-2.455,2.947-4.722,5.292-6.738l0.475,0.512c-2.27,1.952-3.992,4.141-5.116,6.508
						c-1.266,2.664-1.191,4.818,0.223,6.402c0.219,0.245,0.47,0.477,0.721,0.709c0.447,0.413,0.909,0.842,1.208,1.347
						c0.276,0.465,0.389,0.947,0.498,1.413l0.076,0.313c0.918,3.622,4.479,6.942,9.29,8.664L276.597,224.938z"/>
				</g>
				<g>
					<path style="fill:#325754;" d="M257.856,282.154c-3.762-11.441-4.934-23.655-6.067-35.467
						c-1.227-12.789-2.495-26.012-7.069-38.187l0.91-0.321c4.615,12.286,5.89,25.57,7.122,38.417
						c1.128,11.763,2.295,23.926,6.025,35.273L257.856,282.154z"/>
				</g>
				<g>
					<path style="fill:#325754;" d="M266.345,194.306c-11.476,0-23.035-1.611-33.929-4.759c-3.253-0.94-6.959-2.151-9.771-4.65
						l0.659-0.686c2.662,2.364,6.246,3.534,9.396,4.444c14.022,4.053,29.163,5.539,43.785,4.292l0.08,0.927
						C273.179,194.163,269.765,194.306,266.345,194.306z"/>
				</g>
				<g>
					<path style="fill:#325754;" d="M252.489,225.834c-0.581-9.215-3.168-18.432-7.484-26.654l0.64-0.314
						c4.358,8.304,6.972,17.613,7.558,26.921L252.489,225.834z"/>
				</g>
				<g>
					<path style="fill:#648381;" d="M277.007,233.828c-0.246-0.648-0.535-1.34-1.143-1.703c-0.592-0.353-1.362-0.307-2.024-0.088
						c-1.796,0.596-2.991,2.318-3.424,4.097c-0.434,1.779-0.236,3.633-0.045,5.447c1.832,17.393,2.834,34.873,3.007,52.365
						c1.581-0.785,2.715-1.527,2.806-1.875c2.838-10.94,6.168-24.116,7.74-35.508C282.107,248.852,279.832,241.252,277.007,233.828z
						"/>
					<path style="fill:#648381;" d="M260.499,297.243c-4.652-8.13-7.292-17.331-9.845-26.356c-1.25-4.417-2.505-8.864-2.88-13.433
						c-0.299-3.648-0.033-7.327-0.328-10.975c-0.259-3.205-0.949-6.36-1.703-9.488c-2.797-11.603-6.5-22.998-11.07-34.058
						c-0.578-1.398-1.599-3.051-3.155-2.866c-3.11,7.026-2.768,14.941-2.373,22.548c0.35,6.731,0.704,13.464,1.348,20.174
						c0.422,4.396,0.97,8.784,1.72,13.137c2.528,5.425,5.133,10.816,7.814,16.172c3.54,7.071,6.983,14.337,11.072,21.13
						C253.342,296.957,256.67,297.543,260.499,297.243z"/>
				</g>
			</g>
			<g>
				<path style="fill:#FFDEC9;" d="M198.524,127.987c-7.449,9.787-15.188,20.43-14.612,32.084c2.903,1.841,6.757-0.784,9.047-3.19
					c3.115-3.272,6.229-6.544,9.344-9.815c6.338-6.658,12.699-13.35,18.072-20.618c2.853-3.859,12.919-15.982,10.538-20.771
					C224.176,92.128,200.733,125.084,198.524,127.987z"/>
				<path style="fill:#E4FDE1;" d="M245.786,116.511c-0.444-8.002-4.973-18.021-11.179-23.329c-0.876-0.749-1.843-1.482-2.998-1.683
					c-2.179-0.379-4.164,1.206-5.744,2.713c-4.016,3.828-7.784,7.895-11.281,12.168c-0.035,0.042-0.071,0.083-0.105,0.125
					c1.092-1.045,2.827,0.266,3.684,1.485c2.897,4.122,5.57,8.512,6.68,13.381c0.312,1.368,0.493,2.747,0.569,4.132
					c0.336,6.172-1.476,12.45-3.624,18.367c-2.631,7.244-5.814,14.467-6.29,22.113c-0.384,6.179,1.128,13.457,5.359,18.02
					c0.892,0.962,2.527,0.185,2.263-1.082c-0.791-3.809-0.483-7.856,0.484-11.665c1.299-5.118,3.717-9.906,6.118-14.648
					c3.222-6.365,6.445-12.73,9.667-19.094C242.75,130.874,246.194,123.864,245.786,116.511z"/>
				<path style="fill:#BEEDB9;" d="M245.786,116.511c-0.444-8.002-4.973-18.021-11.179-23.329c-0.876-0.749-1.843-1.482-2.998-1.683
					c-2.179-0.379-4.164,1.206-5.744,2.713c-2.098,2-4.126,4.07-6.085,6.196c1.395-1.179,3.027-2.153,4.786-1.847
					c1.155,0.201,2.123,0.934,2.998,1.683c6.206,5.309,10.736,15.327,11.179,23.329c0.408,7.353-3.036,14.363-6.398,21.002
					c-3.222,6.365-6.444,12.73-9.667,19.095c-2.206,4.357-4.415,8.756-5.769,13.411c0.899,2.658,2.234,5.111,4.075,7.054
					c0.86,0.907,2.424,0.13,2.165-1.075c-0.828-3.85-0.525-7.949,0.454-11.805c1.299-5.118,3.717-9.906,6.118-14.648
					c3.222-6.365,6.445-12.73,9.667-19.094C242.75,130.874,246.194,123.864,245.786,116.511z"/>
				<g>
					<g>
						<path style="fill:#648381;" d="M231.187,126.549c0.015,0.006,0.032,0.009,0.05,0.005c0.045-0.008,0.075-0.051,0.067-0.095
							c-0.239-1.225,0.042-2.496,0.315-3.726c0.28-1.26,0.569-2.564,0.305-3.834c-0.073-0.351-0.188-0.695-0.299-1.028
							c-0.091-0.272-0.185-0.554-0.254-0.836c-0.011-0.043-0.056-0.07-0.101-0.059c-0.045,0.01-0.073,0.054-0.062,0.097
							c0.071,0.287,0.166,0.572,0.258,0.848c0.11,0.329,0.223,0.668,0.294,1.01c0.257,1.238-0.029,2.525-0.305,3.769
							c-0.276,1.245-0.562,2.532-0.316,3.789C231.144,126.517,231.163,126.538,231.187,126.549z"/>
					</g>
					<g>
						<path style="fill:#648381;" d="M230.82,124.372c-0.346-1.116-0.814-2.275-1.785-2.969c-0.138-0.099-0.297-0.19-0.47-0.181
							c-0.239,0.012-0.43,0.225-0.471,0.452c-0.041,0.227,0.039,0.458,0.154,0.659c0.288,0.503,0.779,0.862,1.202,1.267
							c0.323,0.309,0.61,0.65,0.876,1.005c0.132,0.175,0.258,0.353,0.383,0.533c0.098,0.141,0.213,0.413,0.366,0.491
							C231.121,125.226,230.938,124.755,230.82,124.372z"/>
					</g>
					<g>
						<path style="fill:#648381;" d="M232.666,123.58c0.225-0.082,0.462-0.128,0.686-0.213c0.501-0.192,0.903-0.577,1.193-1.015
							c0.089-0.133,0.167-0.311,0.075-0.44c-0.094-0.131-0.298-0.12-0.459-0.08c-0.998,0.249-1.74,1.035-2.414,1.788
							c-0.185,0.207-0.374,0.427-0.481,0.683c-0.09,0.214-0.155,0.62,0.121,0.274C231.726,124.153,232.138,123.773,232.666,123.58z"
							/>
					</g>
					<g>
						<path style="fill:#648381;" d="M231.387,121.845c-0.074-0.562-0.181-1.126-0.406-1.649c-0.225-0.523-0.575-1.007-1.06-1.326
							c-0.144-0.094-0.302-0.175-0.475-0.2c-0.173-0.025-0.362,0.011-0.49,0.125c-0.146,0.13-0.192,0.339-0.16,0.527
							c0.032,0.188,0.132,0.357,0.242,0.515c0.22,0.316,0.484,0.6,0.729,0.898c0.496,0.605,0.912,1.271,1.234,1.978
							c0.083,0.182,0.329,0.933,0.438,0.376C231.517,122.696,231.439,122.237,231.387,121.845z"/>
					</g>
					<g>
						<path style="fill:#648381;" d="M232.403,121.44c0.243-0.17,0.488-0.342,0.756-0.473c0.284-0.139,0.589-0.23,0.893-0.32
							c0.274-0.082,0.549-0.164,0.823-0.245c0.232-0.069,0.473-0.143,0.652-0.301c0.18-0.158,0.279-0.427,0.163-0.631
							c-0.09-0.16-0.288-0.241-0.478-0.242c-0.189-0.001-0.372,0.065-0.546,0.138c-0.629,0.264-1.206,0.64-1.7,1.097
							c-0.25,0.231-0.479,0.483-0.683,0.753c-0.155,0.204-0.496,0.585-0.5,0.836C231.957,121.802,232.149,121.618,232.403,121.44z"
							/>
					</g>
					<g>
						<path style="fill:#648381;" d="M232.947,118.927c0.433-0.325,0.911-0.592,1.331-0.933c0.382-0.311,0.713-0.681,0.974-1.091
							c0.051-0.08,0.1-0.164,0.106-0.257c0.012-0.19-0.173-0.35-0.369-0.38c-0.195-0.03-0.393,0.039-0.571,0.123
							c-0.711,0.336-1.269,0.927-1.665,1.588c-0.198,0.332-0.359,0.683-0.496,1.042c-0.069,0.181-0.395,0.846-0.266,0.986
							C232.257,119.581,232.536,119.235,232.947,118.927z"/>
					</g>
					<g>
						<path style="fill:#648381;" d="M231.208,117.946c-0.438-0.504-0.952-1.031-1.631-1.11c-0.318-0.037-0.703,0.078-0.798,0.374
							c-0.077,0.239,0.076,0.499,0.288,0.642c0.212,0.143,0.473,0.197,0.723,0.263c0.646,0.169,1.266,0.429,1.833,0.771
							c0.091,0.055,0.173,0.117,0.239,0.198C231.826,118.65,231.485,118.264,231.208,117.946z"/>
					</g>
					<g>
						<path style="fill:#648381;" d="M233.137,116.14c0.178-0.144,0.363-0.288,0.481-0.48c0.118-0.193,0.154-0.449,0.025-0.633
							c-0.096-0.138-0.272-0.212-0.445-0.216c-0.173-0.004-0.343,0.057-0.49,0.144c-0.484,0.288-0.726,0.836-0.883,1.361
							c-0.101,0.337-0.179,0.679-0.235,1.025c-0.012,0.076-0.114,0.44-0.061,0.499c0.107,0.12,0.181-0.079,0.22-0.148
							C232.095,117.078,232.584,116.587,233.137,116.14z"/>
					</g>
				</g>
				<g>
					<g>
						<path style="fill:#648381;" d="M235.799,122.001c-0.022,0.009-0.046,0.012-0.072,0.008c-0.065-0.012-0.107-0.073-0.094-0.135
							c0.367-1.757-0.012-3.58-0.378-5.343c-0.376-1.808-0.765-3.677-0.362-5.499c0.111-0.503,0.283-0.996,0.448-1.474
							c0.136-0.391,0.276-0.795,0.381-1.198c0.016-0.062,0.081-0.1,0.146-0.085c0.064,0.015,0.103,0.078,0.087,0.14
							c-0.107,0.412-0.249,0.82-0.386,1.215c-0.164,0.471-0.333,0.958-0.441,1.449c-0.392,1.775-0.009,3.62,0.362,5.405
							c0.371,1.785,0.755,3.631,0.378,5.433C235.861,121.955,235.834,121.986,235.799,122.001z"/>
					</g>
					<g>
						<path style="fill:#648381;" d="M236.369,118.88c0.519-1.6,1.212-3.262,2.618-4.257c0.2-0.142,0.43-0.272,0.677-0.259
							c0.342,0.018,0.612,0.323,0.667,0.648c0.055,0.325-0.065,0.657-0.233,0.945c-0.422,0.722-1.134,1.236-1.748,1.816
							c-0.469,0.443-0.887,0.933-1.277,1.441c-0.192,0.251-0.377,0.507-0.559,0.765c-0.143,0.202-0.314,0.592-0.534,0.704
							C235.92,120.105,236.191,119.428,236.369,118.88z"/>
					</g>
					<g>
						<path style="fill:#648381;" d="M233.736,117.745c-0.321-0.118-0.661-0.183-0.979-0.306c-0.715-0.275-1.284-0.827-1.691-1.455
							c-0.124-0.191-0.233-0.445-0.098-0.631c0.137-0.188,0.43-0.173,0.66-0.115c1.426,0.357,2.475,1.485,3.426,2.564
							c0.262,0.297,0.528,0.613,0.677,0.979c0.124,0.306,0.21,0.89-0.179,0.393C235.074,118.565,234.49,118.021,233.736,117.745z"/>
					</g>
					<g>
						<path style="fill:#648381;" d="M235.605,115.256c0.116-0.806,0.281-1.614,0.614-2.364c0.332-0.75,0.844-1.444,1.547-1.901
							c0.208-0.135,0.437-0.251,0.685-0.287c0.248-0.036,0.518,0.016,0.701,0.18c0.206,0.186,0.268,0.486,0.219,0.755
							c-0.05,0.269-0.196,0.512-0.357,0.739c-0.321,0.453-0.706,0.86-1.063,1.288c-0.724,0.867-1.332,1.823-1.808,2.836
							c-0.122,0.26-0.49,1.337-0.636,0.539C235.402,116.476,235.523,115.818,235.605,115.256z"/>
					</g>
					<g>
						<path style="fill:#648381;" d="M234.156,114.675c-0.345-0.244-0.693-0.49-1.075-0.678c-0.404-0.199-0.84-0.33-1.274-0.46
							c-0.392-0.117-0.784-0.235-1.175-0.352c-0.332-0.099-0.675-0.205-0.929-0.432c-0.254-0.227-0.392-0.612-0.222-0.905
							c0.132-0.229,0.419-0.345,0.69-0.347c0.271-0.002,0.532,0.093,0.78,0.198c0.896,0.379,1.716,0.918,2.416,1.574
							c0.354,0.331,0.677,0.693,0.964,1.079c0.217,0.293,0.699,0.839,0.7,1.199C234.789,115.194,234.517,114.93,234.156,114.675z"/>
					</g>
					<g>
						<path style="fill:#648381;" d="M233.425,111.072c-0.615-0.466-1.295-0.849-1.89-1.338c-0.542-0.445-1.008-0.976-1.375-1.565
							c-0.071-0.114-0.14-0.236-0.146-0.369c-0.013-0.273,0.255-0.503,0.536-0.546c0.281-0.043,0.563,0.056,0.817,0.177
							c1.013,0.482,1.802,1.329,2.356,2.277c0.278,0.476,0.501,0.979,0.69,1.494c0.095,0.259,0.549,1.213,0.362,1.414
							C234.403,112.01,234.009,111.514,233.425,111.072z"/>
					</g>
					<g>
						<path style="fill:#648381;" d="M235.938,109.665c0.639-0.722,1.385-1.478,2.361-1.592c0.457-0.054,1.007,0.112,1.137,0.536
							c0.105,0.343-0.119,0.716-0.426,0.921c-0.307,0.205-0.682,0.283-1.042,0.376c-0.93,0.242-1.824,0.616-2.644,1.106
							c-0.132,0.079-0.251,0.168-0.347,0.284C235.039,110.675,235.535,110.121,235.938,109.665z"/>
					</g>
					<g>
						<path style="fill:#648381;" d="M233.208,107.076c-0.252-0.206-0.516-0.412-0.681-0.688s-0.212-0.644-0.023-0.908
							c0.141-0.197,0.394-0.304,0.642-0.31c0.248-0.006,0.49,0.081,0.7,0.207c0.689,0.413,1.024,1.198,1.239,1.952
							c0.138,0.482,0.244,0.973,0.317,1.469c0.016,0.109,0.154,0.631,0.078,0.715c-0.157,0.172-0.258-0.112-0.313-0.212
							C234.684,108.421,233.993,107.716,233.208,107.076z"/>
					</g>
				</g>
				<path style="fill:#8ACB88;" d="M241.266,109.571c-2.33-4.192-6.738-6.876-11.071-9.16c-4.333-2.284-8.919-3.983-12.064-7.646
					c5.506-7.901,15.147-13.758,24.703-16.143c4.658,13.103,5.772,26.944,4.343,40.762c-0.137,1.322-0.396,2.801-1.521,3.576
					C244.675,116.846,243.332,113.287,241.266,109.571z"/>
				<path style="fill:#62B05F;" d="M223.656,86.638c2.737,1.964,5.959,3.301,9.054,4.933c4.332,2.284,8.741,4.968,11.071,9.16
					c1.743,3.136,2.968,6.165,3.899,9.504c0.432-11.422-0.99-22.77-4.845-33.612C235.959,78.338,229.048,81.858,223.656,86.638z"/>
				<path style="fill:#8ACB88;" d="M226.754,135.336c1.106,2.119,2.815,4.186,4.304,6.073c2.169-1.689,4.968-3.109,6.244-5.495
					c2.139-4,3.719-8.65,4.632-13.056c-1.984-1.558-4.526-2.448-7.094-2.484c-2.569-0.035-5.148,0.784-7.198,2.287
					c-0.198,4.174-0.452,8.343-0.887,12.501C226.661,135.029,226.847,135.47,226.754,135.336z"/>
				<g>
					<path style="fill:#62B05F;" d="M242.207,106.104c-1.78-2.281-4.122-4.165-6.771-5.451c-1.635-0.793-3.417-1.373-5.141-1.934
						c-1.149-0.374-2.338-0.761-3.485-1.211l-0.141-0.055c-2.791-1.093-5.677-2.224-7.194-4.946l-0.159-0.285l0.224-0.244
						c4.769-5.196,10.718-9.533,17.204-12.544l0.416,0.838c-6.266,2.909-12.021,7.078-16.666,12.07
						c1.393,2.229,3.899,3.211,6.545,4.248l0.141,0.055c1.12,0.439,2.295,0.821,3.431,1.191c1.755,0.572,3.57,1.163,5.265,1.985
						c2.781,1.349,5.238,3.327,7.107,5.72L242.207,106.104z"/>
				</g>
			</g>
			<g>
				<path style="fill:#FFDEC9;" d="M190.625,175.92c4.721,7.689,11.098,14.521,17.434,21.301c2.49,2.665,5.092,5.408,8.651,6.945
					c1.063,0.459,2.485,0.756,3.342,0.044c0.541-0.45,0.649-1.152,0.672-1.796c0.183-5.105-2.922-9.8-5.699-14.311
					c-5.235-8.504-9.616-17.395-13.078-26.544c-1.831-4.839-9.186-17.388-16.814-9.954
					C179.539,157.057,187.536,170.889,190.625,175.92z"/>
				<path style="fill:#8ACB88;" d="M218.162,107.991c-0.857-1.22-2.592-2.531-3.684-1.485c0.035-0.042,0.071-0.083,0.105-0.125
					c-3.223,2.729-6.312,6.905-8.589,9.423c-7.44,8.228-13.712,17.244-19.089,26.827c-2.024,3.704-3.9,7.572-4.491,11.711
					c-0.765,5.35,0.666,10.727,2.089,15.937c3.805,13.934,8.157,28.701,19.354,38.229c1.004-8.869,5.325-17.376,11.992-23.609
					c-4.483-8.429-8.471-17.104-11.939-25.971c-0.558-1.428-1.112-2.95-0.807-4.453c0.317-1.558,1.497-2.805,2.612-3.979
					c7.34-7.73,13.935-16.112,19.695-24.991c-0.075-1.384-0.256-2.763-0.569-4.132C223.732,116.503,221.059,112.113,218.162,107.991
					z"/>
				<path style="fill:#62B05F;" d="M206.987,169.783c-0.559-1.428-1.112-2.95-0.806-4.453c0.034-0.168,0.083-0.33,0.136-0.49
					c-0.827-1.962-1.632-3.931-2.406-5.913c-0.558-1.428-1.112-2.95-0.807-4.453c0.317-1.558,1.497-2.805,2.612-3.979
					c7.331-7.72,13.917-16.09,19.673-24.957c-1.198-2.322-2.64-4.544-4.149-6.691c-0.857-1.22-2.592-2.531-3.684-1.486
					c0.034-0.042,0.071-0.083,0.105-0.125c-3.223,2.729-6.312,6.905-8.589,9.423c-7.44,8.228-13.712,17.245-19.089,26.827
					c-2.024,3.704-3.9,7.572-4.491,11.711c-0.669,4.679,0.342,9.378,1.557,13.969c3.405,11.054,7.977,21.827,16.808,29.342
					c0.921-8.135,4.64-15.962,10.393-22.012C211.623,181.011,209.198,175.436,206.987,169.783z"/>
				<path style="fill:#546E6C;" d="M213.289,232.543c-1.118-4.768-2.237-9.535-3.355-14.303c-0.309-1.318-0.621-2.66-0.521-4.011
					c0.11-1.481,0.706-2.885,1.295-4.26c2.173-5.072,4.346-10.145,6.519-15.217c0.636-1.485,1.287-2.994,2.338-4.243
					c2.008-2.388,7.995-4.652,10.668-1.946c2.851,2.887-1.654,9.796-2.864,12.752C223.048,211.873,218.351,222.29,213.289,232.543z"
					/>
				<g>
					<path style="fill:#4E9C4A;" d="M192.044,171.384c-0.101,0-0.204-0.01-0.308-0.03c-0.546-0.105-1.469-0.584-1.523-2.611
						c-0.062-2.316-0.126-4.71,0.635-7.006c0.862-2.601,2.797-4.578,5.051-5.162c0.37-0.095,0.762-0.196,0.821-0.37
						c0.015-0.042,0.016-0.076-0.018-0.13c-0.121-0.191-0.53-0.388-0.93-0.448c-1.721-0.258-3.528-0.179-5.223,0.232l-0.205,0.05
						c-0.525,0.131-1.119,0.279-1.731,0.195c-0.767-0.104-1.583-0.68-1.584-1.541c0-0.774,0.654-1.419,1.794-1.77
						c2.188-0.671,4.597-0.683,6.781-0.031c0.186,0.055,0.371,0.116,0.557,0.176c0.644,0.21,1.262,0.422,1.865,0.395
						c0.661-0.014,1.409-0.419,1.467-0.998c0.06-0.595-0.499-1.134-1.811-1.746c-1.613-0.753-3.169-1.644-4.626-2.647
						c-0.939-0.647-1.895-1.384-2.523-2.393c-0.723-1.16-0.835-2.522-0.292-3.554l0.15-0.285l0.33,0.029
						c1.641,0.147,2.83,1.348,3.879,2.408c0.172,0.174,0.343,0.347,0.515,0.514c2.122,2.066,4.931,3.491,7.907,4.011l-0.179,0.916
						c-3.169-0.554-6.159-2.071-8.418-4.271c-0.176-0.171-0.351-0.348-0.528-0.526c-0.888-0.898-1.803-1.823-2.924-2.071
						c-0.27,0.821,0.006,1.728,0.391,2.346c0.538,0.864,1.404,1.528,2.259,2.117c1.413,0.973,2.923,1.836,4.487,2.567
						c0.747,0.349,2.498,1.165,2.347,2.668c-0.114,1.126-1.318,1.823-2.416,1.846c-0.781,0.009-1.501-0.218-2.195-0.444
						c-0.178-0.058-0.356-0.116-0.533-0.169c-1.998-0.597-4.199-0.586-6.2,0.028c-0.539,0.165-1.115,0.483-1.115,0.876
						c0,0.312,0.392,0.576,0.758,0.626c0.422,0.056,0.873-0.055,1.352-0.175l0.211-0.052c1.82-0.439,3.759-0.525,5.608-0.249
						c0.534,0.08,1.273,0.358,1.603,0.88c0.178,0.281,0.216,0.594,0.109,0.905c-0.225,0.654-0.927,0.836-1.439,0.968
						c-2.37,0.614-3.833,2.753-4.43,4.555c-0.711,2.145-0.649,4.46-0.59,6.699c0.013,0.479,0.111,1.605,0.751,1.728
						c0.785,0.156,1.284-1.331,1.375-1.63c1.639-5.375,3.926-9.019,6.991-11.14l0.561,0.755c-2.882,1.995-5.049,5.475-6.624,10.642
						C193.784,170.544,192.979,171.384,192.044,171.384z"/>
				</g>
			</g>
			<g>
				<g>
					<path style="fill:#D19728;" d="M212.671,230.276c-5.096-2.428-10.214-4.868-14.883-7.986
						c-9.68-6.463-17.061-15.577-23.979-24.753l-17.319,2.849l10.508,26.11c-2.508,11.859-4.433,23.779-4.891,35.969
						c9.968,8.94,18.734,17.193,29.442,25.032l4.846,12.04l17.076-3.022c2.675-0.38,4.98-1.553,5.883-3.907
						c6.657-17.339,9.911-35.983,9.906-54.428C223.73,235.545,218.201,232.911,212.671,230.276z"/>
					<path style="fill:#9D711E;" d="M228.738,237.931c-5.356-2.551-10.711-5.103-16.067-7.654
						c-5.096-2.428-10.214-4.868-14.883-7.986c-9.68-6.463-17.061-15.577-23.979-24.753l-17.319,2.849l5.308,13.188
						c8.262,7.318,16.147,14.189,25.589,20.774c3.852,2.687,7.831,5.342,12.372,6.792c2.424,0.774,5.418,1.129,8.038,0.73
						l0.079,0.193l17.388-3.022C226.544,238.862,227.733,238.5,228.738,237.931z"/>
					<g>
						<g>
							<path style="fill:#546E6C;" d="M186.085,242.878c-0.055,0.002-0.111-0.012-0.16-0.043c-0.128-0.08-0.164-0.246-0.08-0.37
								c2.362-3.481,3.184-7.724,3.978-11.828c0.814-4.208,1.656-8.558,4.152-12.151c0.689-0.992,1.499-1.913,2.282-2.805
								c0.641-0.729,1.304-1.484,1.89-2.266c0.09-0.12,0.264-0.148,0.388-0.062c0.124,0.086,0.152,0.253,0.062,0.373
								c-0.599,0.799-1.269,1.562-1.917,2.299c-0.773,0.88-1.572,1.789-2.244,2.756c-2.432,3.5-3.263,7.795-4.067,11.95
								c-0.804,4.155-1.635,8.452-4.059,12.023C186.258,242.832,186.173,242.875,186.085,242.878z"/>
						</g>
						<g>
							<path style="fill:#546E6C;" d="M190.102,236.625c2.547-3.019,5.523-6.025,9.427-7.002c0.556-0.139,1.166-0.23,1.684,0.003
								c0.717,0.323,1.023,1.205,0.849,1.951c-0.174,0.746-0.728,1.362-1.347,1.843c-1.552,1.205-3.538,1.722-5.375,2.463
								c-1.402,0.566-2.737,1.274-4.028,2.046c-0.637,0.381-1.263,0.779-1.885,1.183c-0.487,0.317-1.204,1.015-1.777,1.074
								C188.043,238.892,189.23,237.66,190.102,236.625z"/>
						</g>
						<g>
							<path style="fill:#546E6C;" d="M185.478,231.994c-0.582-0.52-1.252-0.943-1.825-1.472c-1.285-1.186-2.011-2.849-2.322-4.54
								c-0.095-0.515-0.102-1.153,0.355-1.441c0.463-0.292,1.076-0.016,1.518,0.3c2.736,1.953,3.976,5.253,5.046,8.37
								c0.294,0.857,0.583,1.758,0.574,2.672c-0.008,0.763-0.348,2.091-0.737,0.699
								C187.609,234.872,186.846,233.215,185.478,231.994z"/>
						</g>
						<g>
							<path style="fill:#546E6C;" d="M191.713,228.181c0.972-1.641,2.05-3.245,3.435-4.585c1.385-1.34,3.104-2.412,5.019-2.813
								c0.568-0.119,1.162-0.178,1.726-0.05c0.564,0.127,1.097,0.464,1.341,0.969c0.276,0.572,0.14,1.271-0.208,1.809
								c-0.348,0.538-0.881,0.941-1.427,1.296c-1.095,0.71-2.285,1.268-3.434,1.893c-2.329,1.269-4.49,2.824-6.418,4.611
								c-0.496,0.46-2.249,2.476-1.846,0.634C190.186,230.642,191.035,229.326,191.713,228.181z"/>
						</g>
						<g>
							<path style="fill:#546E6C;" d="M189.128,225.726c-0.521-0.813-1.045-1.631-1.696-2.353c-0.688-0.764-1.506-1.408-2.319-2.048
								c-0.735-0.578-1.469-1.156-2.204-1.734c-0.622-0.489-1.263-1.002-1.605-1.702c-0.342-0.7-0.291-1.644,0.336-2.135
								c0.489-0.383,1.206-0.396,1.79-0.175c0.583,0.222,1.058,0.642,1.495,1.073c1.581,1.56,2.857,3.402,3.77,5.397
								c0.461,1.007,0.83,2.054,1.099,3.125c0.204,0.811,0.747,2.388,0.426,3.166C190.02,227.372,189.673,226.576,189.128,225.726z"
								/>
						</g>
						<g>
							<path style="fill:#546E6C;" d="M190.791,217.356c-0.901-1.513-2.016-2.904-2.853-4.451c-0.763-1.41-1.287-2.941-1.545-4.514
								c-0.05-0.305-0.089-0.624,0.017-0.917c0.217-0.599,0.997-0.872,1.638-0.731c0.641,0.14,1.156,0.588,1.592,1.059
								c1.74,1.88,2.672,4.359,3.009,6.862c0.169,1.256,0.197,2.527,0.141,3.792c-0.028,0.639,0.09,3.07-0.491,3.349
								C192.047,220.188,191.646,218.792,190.791,217.356z"/>
						</g>
						<g>
							<path style="fill:#546E6C;" d="M197.439,216.408c2.016-1.026,4.295-2.036,6.489-1.472c1.028,0.264,2.057,1.077,1.956,2.098
								c-0.082,0.827-0.896,1.444-1.737,1.631c-0.842,0.186-1.716,0.043-2.572-0.054c-2.211-0.251-4.463-0.187-6.659,0.189
								c-0.354,0.06-0.688,0.154-0.999,0.325C194.606,217.839,196.166,217.056,197.439,216.408z"/>
						</g>
						<g>
							<path style="fill:#546E6C;" d="M193.908,208.563c-0.356-0.654-0.736-1.316-0.843-2.048c-0.107-0.732,0.122-1.564,0.764-1.976
								c0.48-0.308,1.118-0.329,1.655-0.135c0.537,0.194,0.979,0.581,1.316,1.027c1.107,1.461,1.121,3.432,0.907,5.236
								c-0.137,1.154-0.35,2.3-0.636,3.429c-0.063,0.249-0.235,1.488-0.474,1.606c-0.49,0.241-0.451-0.456-0.48-0.717
								C195.866,212.686,195.015,210.594,193.908,208.563z"/>
						</g>
					</g>
					<g>
						<g>
							<g>
								<path style="fill:#546E6C;" d="M183.243,170.644c0.062-1.341,0.798-2.559,1.515-3.715c0.209,0.648,0.417,1.297,0.626,1.946
									c0.063-1.949,1.852-3.39,3.484-4.556c1.1-0.786,2.199-1.571,3.299-2.357c0.039,1.734-0.107,3.494-0.698,5.135
									c-0.592,1.642-1.661,3.166-3.183,4.105c0.812,0.102,1.664-0.107,2.331-0.571c-0.078,1.345-1.351,2.364-2.66,2.849
									c-0.937,0.348-2.761,1.136-3.668,0.529C183.464,173.457,183.204,171.501,183.243,170.644z"/>
							</g>
							<g>
								<path style="fill:#546E6C;" d="M189.423,175.391c2.106-0.871,4.273-1.909,5.569-3.73c-0.017,1.22-0.144,2.459-0.625,3.591
									c-0.481,1.132-1.354,2.153-2.528,2.618c0.693,0.007,1.387-0.115,2.034-0.357c-0.211,1.123-1.197,2-2.296,2.432
									c-1.099,0.432-2.309,0.493-3.493,0.541c0.357,0.497,0.799,0.938,1.303,1.299c-0.232-0.166-1.617,0.073-1.973,0.051
									c-0.798-0.049-1.59-0.183-2.357-0.398c-1.366-0.382-2.548-0.795-1.828-2.34
									C184.159,177.104,187.518,176.179,189.423,175.391z"/>
							</g>
							<g>
								<path style="fill:#546E6C;" d="M181.53,170.922c-0.447-2.67-2.694-5.072-2.149-7.731c-0.722,0.439-1.207,1.222-1.264,2.04
									c-1.402-2.342-3.822-4.095-6.552-4.747c-0.522,3.055,0.546,6.313,2.79,8.512c-0.883-0.025-1.764-0.132-2.624-0.32
									c0.776,1.482,1.943,2.771,3.363,3.713c-0.569,0.069-1.148,0.056-1.712-0.04c0.194,0.033,1.461,2.045,1.892,2.361
									c0.89,0.653,1.974,1.084,3.09,1.205C181.15,176.218,181.906,173.169,181.53,170.922z"/>
							</g>
							<g>
								<path style="fill:#546E6C;" d="M165.766,172.77c-0.459-1.388-1.148-2.954-2.607-3.342c0.038,0.623-0.057,1.254-0.278,1.843
									c-1.333-1.344-3.276-1.946-5.168-2.335c-1.892-0.389-3.851-0.624-5.591-1.434c-0.189,2.315,0.83,4.633,2.488,6.308
									c1.658,1.675,3.907,2.741,6.251,3.274c-0.926,0.167-1.852,0.335-2.777,0.502c0.544-0.098,2.953,1.477,3.745,1.647
									c1.135,0.243,2.947,0.547,4.035-0.025C168.135,178.015,166.317,174.437,165.766,172.77z"/>
							</g>
							<g>
								<path style="fill:#546E6C;" d="M190.664,188.692c-0.003,0.469,0.063,0.938,0.195,1.389c0.044,0.151,0.126,0.325,0.288,0.345
									c0.172,0.021,0.297-0.145,0.395-0.283c1.057-1.486,3.185-1.699,4.955-2.28c1.394-0.458,2.68-1.223,3.73-2.221
									c-0.121,1.079-0.529,2.111-1,3.1c-0.807,1.697-1.935,3.418-3.732,4.12c0.51-0.007,1.02-0.015,1.53-0.023
									c-0.397,0.871-1.413,1.297-2.357,1.576c-1.921,0.566-4.186,1.032-6.185,0.807c0.18-1.105-0.165-2.15,0.1-3.248
									c0.15-0.621,0.458-1.238,0.802-1.781C189.554,189.924,190.663,188.929,190.664,188.692z"/>
							</g>
							<g>
								<path style="fill:#546E6C;" d="M193.76,198.571c-0.518,0.307-1.01,0.656-1.469,1.041c3.077,0.757,6.264,1.112,9.445,1.053
									c-0.489,0.56-0.979,1.119-1.467,1.679c0.941-0.452,1.945,0.4,2.699,1.097c1.442,1.333,3.199,2.349,5.101,2.949
									c-3.182,2.647-7.792,3.599-11.798,2.438c0.346,0.308,0.588,0.722,0.681,1.167c-2.537-0.188-4.997-1.176-6.914-2.775
									c-0.247,0.687-0.36,1.417-0.334,2.141c-0.007-0.19-1.285-1.131-1.475-1.357c-0.479-0.571-0.875-1.207-1.178-1.881
									c-0.608-1.351-0.839-2.878-0.688-4.349C186.669,198.788,191.233,198.433,193.76,198.571z"/>
							</g>
							<g>
								<path style="fill:#546E6C;" d="M186.685,186.668c-0.354,0.431-0.709,0.863-1.063,1.294c-1.116-1.39-1.723-3.152-1.693-4.914
									c-1.955,1.871-2.998,4.59-2.772,7.224c-0.574-0.054-1.138-0.203-1.658-0.441c-0.067-0.03,0.239,1.82,0.306,1.975
									c0.315,0.729,0.847,1.35,1.438,1.887c0.891,0.808,2.203,1.708,3.497,1.25C187.534,193.955,187.292,188.797,186.685,186.668z
									"/>
							</g>
							<g>
								<g>
									<path style="fill:#546E6C;" d="M166.789,218.911c-0.101,0.085-0.254,0.08-0.349-0.012
										c-0.098-0.096-0.095-0.251,0.006-0.345c1.897-1.784,2.626-4.485,3.089-6.892c0.539-2.804,0.876-5.693,1.202-8.486
										c0.42-3.599,0.854-7.319,1.725-10.913c0.571-2.355,1.226-4.214,2.062-5.85c1.319-2.581,3.234-4.849,5.087-7.041
										c1.533-1.815,3.119-3.691,4.35-5.73c0.071-0.117,0.226-0.157,0.347-0.09c0.121,0.067,0.162,0.216,0.091,0.334
										c-1.251,2.072-2.849,3.963-4.395,5.793c-1.835,2.171-3.732,4.417-5.025,6.948c-0.818,1.601-1.461,3.427-2.023,5.745
										c-0.864,3.565-1.297,7.271-1.715,10.856c-0.327,2.802-0.665,5.699-1.207,8.521c-0.477,2.483-1.235,5.274-3.235,7.154
										C166.796,218.905,166.792,218.908,166.789,218.911z"/>
								</g>
								<g>
									<path style="fill:#546E6C;" d="M174.802,186.295c-0.087,0.073-0.218,0.082-0.316,0.015
										c-3.959-2.738-7.461-6.02-10.409-9.758c-0.085-0.106-0.077-0.253,0.05-0.342c0.112-0.082,0.271-0.061,0.355,0.046
										c2.917,3.698,6.383,6.948,10.302,9.657c0.113,0.079,0.138,0.231,0.056,0.341
										C174.83,186.269,174.817,186.283,174.802,186.295z"/>
								</g>
								<g>
									<path style="fill:#546E6C;" d="M188.907,177.409c-0.002,0.001-0.003,0.003-0.005,0.004
										c-1.618,1.288-3.688,1.77-5.691,2.236c-1.689,0.394-3.436,0.8-4.88,1.69c-0.119,0.073-0.276,0.04-0.351-0.073
										c-0.076-0.114-0.035-0.27,0.078-0.337c1.517-0.934,3.306-1.351,5.036-1.754c2.035-0.474,3.958-0.921,5.485-2.137
										c0.109-0.086,0.268-0.072,0.357,0.032C189.024,177.171,189.011,177.322,188.907,177.409z"/>
								</g>
								<g>
									<path style="fill:#546E6C;" d="M178.394,181.704c-0.063,0.053-0.151,0.075-0.237,0.051
										c-0.135-0.036-0.212-0.172-0.173-0.301c0.681-2.255,1.451-4.81,1.161-7.285c-0.061-0.522-0.174-1.082-0.345-1.711
										c-0.092-0.336-0.194-0.673-0.297-1.01c-0.374-1.228-0.76-2.498-0.635-3.806c0.013-0.133,0.135-0.234,0.276-0.223
										c0.14,0.011,0.243,0.129,0.23,0.264c-0.116,1.216,0.257,2.44,0.617,3.625c0.104,0.342,0.207,0.683,0.3,1.023
										c0.177,0.653,0.295,1.235,0.358,1.78c0.302,2.572-0.484,5.178-1.178,7.477C178.457,181.634,178.43,181.674,178.394,181.704
										z"/>
								</g>
								<g>
									<path style="fill:#546E6C;" d="M188.092,196.483c-1.748,1.469-3.739,2.674-5.872,3.545
										c-0.868,0.355-1.77,0.659-2.644,0.953c-1.499,0.505-3.05,1.027-4.429,1.811c-1.753,0.994-3.228,2.408-4.27,4.088
										c-0.073,0.117-0.229,0.154-0.348,0.086c-0.12-0.069-0.159-0.218-0.087-0.335c1.086-1.751,2.625-3.223,4.449-4.26
										c1.423-0.807,2.997-1.338,4.52-1.852c0.866-0.292,1.761-0.593,2.613-0.941c3.004-1.227,5.719-3.132,7.852-5.512
										c0.084-0.096,0.252-0.115,0.358-0.027c0.106,0.088,0.117,0.242,0.025,0.344
										C189.591,195.132,188.865,195.833,188.092,196.483z"/>
								</g>
								<g>
									<path style="fill:#546E6C;" d="M196.113,206.504c-0.099,0.083-0.248,0.081-0.343-0.007
										c-1.41-1.308-2.869-2.661-4.656-3.479c-2.753-1.261-5.791-1.104-9.007-0.939c-1.902,0.098-3.87,0.199-5.764-0.024
										c-0.139-0.017-0.237-0.138-0.219-0.272c0.017-0.134,0.144-0.23,0.285-0.213c1.849,0.218,3.794,0.118,5.675,0.021
										c3.138-0.161,6.383-0.328,9.251,0.985c1.861,0.852,3.349,2.232,4.789,3.567c0.1,0.094,0.103,0.248,0.006,0.345
										C196.124,206.495,196.118,206.499,196.113,206.504z"/>
								</g>
								<g>
									<path style="fill:#546E6C;" d="M183.144,199.649c-0.075,0.063-0.185,0.081-0.28,0.036
										c-0.125-0.059-0.176-0.206-0.114-0.327c0.838-1.626,1.787-3.468,1.815-5.387c0.009-0.643-0.084-1.316-0.174-1.967
										c-0.175-1.262-0.356-2.567,0.183-3.773c0.056-0.125,0.205-0.182,0.334-0.13c0.128,0.053,0.188,0.196,0.132,0.32
										c-0.483,1.081-0.319,2.263-0.146,3.514c0.093,0.668,0.188,1.359,0.179,2.039c-0.029,2.03-1.006,3.925-1.868,5.597
										C183.189,199.603,183.168,199.628,183.144,199.649z"/>
								</g>
							</g>
						</g>
						<g>
							<g>
								<path style="fill:#546E6C;" d="M150.376,187.032c-0.214-0.899-0.868-1.63-1.501-2.32c-0.058,0.465-0.116,0.931-0.174,1.396
									c-0.292-1.311-1.687-2.058-2.941-2.639c-0.845-0.391-1.689-0.783-2.534-1.175c0.196,1.178,0.52,2.35,1.13,3.385
									c0.611,1.035,1.53,1.93,2.679,2.372c-0.537,0.172-1.14,0.139-1.65-0.09c0.225,0.9,1.217,1.427,2.164,1.589
									c0.678,0.116,2.014,0.417,2.549-0.109C150.587,188.963,150.513,187.607,150.376,187.032z"/>
							</g>
							<g>
								<path style="fill:#546E6C;" d="M146.804,191.031c-1.536-0.321-3.135-0.748-4.245-1.815c0.168,0.823,0.412,1.645,0.883,2.35
									c0.47,0.704,1.192,1.284,2.046,1.449c-0.468,0.093-0.953,0.099-1.422,0.017c0.287,0.732,1.066,1.201,1.865,1.353
									c0.799,0.152,1.625,0.04,2.432-0.079c-0.178,0.382-0.421,0.736-0.715,1.045c0.135-0.142,1.103-0.156,1.341-0.216
									c0.534-0.135,1.052-0.326,1.543-0.569c0.875-0.432,1.622-0.862,0.937-1.816
									C150.585,191.519,148.194,191.321,146.804,191.031z"/>
							</g>
							<g>
								<path style="fill:#546E6C;" d="M151.571,187.002c-0.04-1.863,1.172-3.774,0.463-5.504c0.545,0.205,0.973,0.673,1.117,1.219
									c0.648-1.763,2.061-3.257,3.824-4.046c0.744,2,0.44,4.34-0.797,6.114c0.594-0.129,1.176-0.314,1.734-0.551
									c-0.335,1.102-0.96,2.122-1.8,2.94c0.394-0.026,0.784-0.109,1.153-0.245c-0.127,0.047-0.727,1.57-0.977,1.838
									c-0.518,0.555-1.196,0.984-1.936,1.209C152.507,190.537,151.605,188.571,151.571,187.002z"/>
							</g>
							<g>
								<path style="fill:#546E6C;" d="M162.473,186.246c0.133-0.998,0.398-2.145,1.336-2.593c0.054,0.426,0.199,0.841,0.424,1.211
									c0.73-1.079,1.967-1.734,3.197-2.238c1.23-0.504,2.526-0.912,3.599-1.682c0.424,1.542,0.032,3.24-0.875,4.584
									c-0.907,1.344-2.292,2.352-3.81,3.011c0.648-0.005,1.296-0.009,1.943-0.014c-0.38,0.003-1.809,1.375-2.323,1.591
									c-0.737,0.309-1.924,0.745-2.733,0.497C161.542,190.096,162.314,187.443,162.473,186.246z"/>
							</g>
							<g>
								<path style="fill:#546E6C;" d="M166.767,192.774c-0.415,0.083-0.807,0.276-1.12,0.552c2.594,0.097,4.98,1.942,7.543,1.529
									c-2.125,1.79-4.912,2.836-7.727,2.899c0.336,0.247,0.619,0.56,0.829,0.913c-1.111,0.282-2.303,0.086-3.359-0.337
									c-1.057-0.423-2.002-1.06-2.937-1.693c-0.315-0.213,2.478-2.827,2.757-3.028C163.91,192.778,165.35,192.418,166.767,192.774
									z"/>
							</g>
							<g>
								<g>
									<path style="fill:#546E6C;" d="M167.948,217.63c-0.085,0.071-0.21,0.082-0.308,0.02c-1.612-1.028-2.489-2.834-3.135-4.465
										c-0.73-1.843-1.33-3.761-1.911-5.616c-0.741-2.37-1.508-4.82-2.547-7.118c-0.675-1.491-1.341-2.639-2.096-3.614
										c-1.194-1.541-2.762-2.816-4.278-4.049c-1.282-1.043-2.608-2.121-3.723-3.368c-0.091-0.101-0.079-0.255,0.026-0.343
										c0.001,0,0.001-0.001,0.001-0.001c0.106-0.088,0.267-0.077,0.358,0.025c1.09,1.217,2.4,2.283,3.667,3.313
										c1.538,1.25,3.128,2.543,4.356,4.129c0.779,1.005,1.463,2.184,2.154,3.71c1.052,2.324,1.823,4.788,2.569,7.172
										c0.578,1.847,1.176,3.757,1.899,5.584c0.648,1.637,1.453,3.283,2.943,4.233c0.116,0.074,0.147,0.226,0.07,0.339
										C167.98,217.6,167.965,217.616,167.948,217.63z"/>
								</g>
								<g>
									<path style="fill:#546E6C;" d="M158.348,196.585c-0.098,0.082-0.247,0.081-0.342-0.006
										c-0.101-0.093-0.105-0.247-0.007-0.346c2.298-2.326,4.222-4.959,5.718-7.826c0.065-0.122,0.216-0.17,0.341-0.11
										c0.125,0.06,0.176,0.206,0.113,0.327c-1.519,2.91-3.472,5.582-5.805,7.944C158.36,196.575,158.354,196.58,158.348,196.585z
										"/>
								</g>
								<g>
									<path style="fill:#546E6C;" d="M160.888,196.439c-0.046,0.038-0.105,0.061-0.17,0.06l-2.208-0.014
										c-0.14-0.001-0.252-0.111-0.251-0.246c0.002-0.135,0.118-0.244,0.257-0.243l2.208,0.014c0.14,0.001,0.252,0.111,0.25,0.246
										C160.974,196.329,160.94,196.394,160.888,196.439z"/>
								</g>
								<g>
									<path style="fill:#546E6C;" d="M155.303,193.67c-0.07,0.059-0.17,0.078-0.261,0.043c-1.08-0.413-2.307-0.466-3.493-0.516
										c-1.423-0.061-2.895-0.124-4.171-0.798c-0.122-0.065-0.167-0.213-0.099-0.331c0.065-0.117,0.222-0.161,0.345-0.097
										c1.173,0.62,2.522,0.677,3.95,0.738c1.229,0.052,2.499,0.107,3.658,0.551c0.13,0.049,0.193,0.192,0.14,0.317
										C155.357,193.614,155.332,193.646,155.303,193.67z"/>
								</g>
								<g>
									<path style="fill:#546E6C;" d="M155.33,193.936c-0.016,0.013-0.033,0.025-0.053,0.034
										c-0.126,0.061-0.278,0.013-0.341-0.107c-0.767-1.473-1.637-3.144-1.763-4.937c-0.027-0.384-0.022-0.797,0.015-1.261
										c0.019-0.243,0.046-0.488,0.072-0.732c0.095-0.879,0.186-1.709-0.045-2.502c-0.038-0.13,0.042-0.265,0.177-0.302
										c0.135-0.037,0.275,0.038,0.313,0.168c0.256,0.883,0.156,1.799,0.061,2.684c-0.026,0.241-0.052,0.48-0.071,0.719
										c-0.035,0.441-0.04,0.83-0.014,1.191c0.12,1.696,0.965,3.32,1.711,4.752C155.443,193.743,155.415,193.864,155.33,193.936z"
										/>
								</g>
							</g>
						</g>
						<g>
							<g>
								<path style="fill:#546E6C;" d="M186.044,214.932c-0.264-0.197-0.499-0.431-0.696-0.691
									c-0.066-0.087-0.129-0.204-0.072-0.297c0.061-0.099,0.208-0.094,0.326-0.087c1.282,0.076,2.304-0.951,3.38-1.633
									c0.848-0.538,1.823-0.887,2.827-1.015c-0.657-0.394-1.409-0.618-2.163-0.79c-1.294-0.296-2.737-0.434-3.893,0.211
									c0.221-0.264,0.441-0.529,0.661-0.793c-0.656-0.161-1.327,0.191-1.883,0.569c-1.132,0.768-2.354,1.759-3.075,2.903
									c0.696,0.374,1.136,0.998,1.864,1.325c0.412,0.185,0.889,0.285,1.339,0.334C184.882,214.992,185.91,214.832,186.044,214.932
									z"/>
							</g>
							<g>
								<path style="fill:#546E6C;" d="M181.817,209.118c-0.392,0.142-0.796,0.252-1.206,0.329c0.881-1.936,2.032-3.758,3.414-5.402
									c-0.521,0.019-1.042,0.039-1.564,0.058c0.653-0.302,0.601-1.19,0.53-1.882c-0.136-1.322,0.039-2.674,0.509-3.927
									c-2.833,0.547-5.322,2.562-6.37,5.156c-0.026-0.312-0.156-0.615-0.366-0.853c-0.97,1.411-1.46,3.12-1.376,4.804
									c-0.49-0.162-0.947-0.412-1.342-0.732c0.104,0.084,0.089,1.154,0.135,1.349c0.117,0.494,0.306,0.971,0.555,1.416
									c0.5,0.892,1.258,1.66,2.147,2.205C178.688,212.747,180.822,210.503,181.817,209.118z"/>
							</g>
							<g>
								<path style="fill:#546E6C;" d="M185.491,217.878c-0.392,0.003-0.784,0.006-1.176,0.009c0.307,1.175,1.037,2.24,2.038,2.972
									c-1.878,0.232-3.845-0.373-5.226-1.608c-0.213,0.324-0.368,0.683-0.456,1.057c-0.011,0.048-0.919-0.897-0.978-0.998
									c-0.275-0.475-0.398-1.017-0.448-1.555c-0.075-0.81-0.024-1.88,0.782-2.365
									C181.765,214.342,184.555,216.656,185.491,217.878z"/>
							</g>
							<g>
								<path style="fill:#546E6C;" d="M182.854,213.081c-0.042,0.035-0.095,0.057-0.155,0.061
									c-2.226,0.109-4.434,0.722-6.386,1.773c-0.554,0.298-1.101,0.639-1.631,0.969c-0.937,0.583-1.906,1.187-2.969,1.594
									c-1.367,0.523-2.859,0.707-4.314,0.533c-0.349-0.042-0.403-0.263-0.411-0.329l-0.023-0.185l0.213-0.12
									c0.12-0.047,0.29-0.032,0.385,0.088l0.06,0.075c1.343,0.134,2.678-0.046,3.905-0.515c1.017-0.389,1.964-0.979,2.88-1.549
									c0.536-0.334,1.09-0.679,1.659-0.986c2.019-1.087,4.304-1.721,6.608-1.835c0.14-0.007,0.259,0.097,0.265,0.232
									C182.945,212.963,182.91,213.034,182.854,213.081z"/>
							</g>
							<g>
								<path style="fill:#546E6C;" d="M172.794,217.048c-0.081,0.068-0.2,0.082-0.297,0.026c-0.12-0.069-0.159-0.219-0.087-0.334
									c0.682-1.094,1.575-2.086,2.439-3.045c1.45-1.61,2.82-3.131,3.275-5.09c0.296-1.275,0.157-2.606,0.022-3.893
									c-0.015-0.134,0.087-0.254,0.227-0.269c0.139-0.014,0.264,0.083,0.278,0.217c0.139,1.326,0.282,2.697-0.032,4.049
									c-0.484,2.081-1.96,3.72-3.388,5.306c-0.849,0.943-1.728,1.918-2.386,2.975
									C172.831,217.012,172.813,217.032,172.794,217.048z"/>
							</g>
							<g>
								<path style="fill:#546E6C;" d="M183.931,218.343c-0.061,0.052-0.147,0.074-0.232,0.053c-0.925-0.234-1.589-0.89-2.229-1.525
									c-0.325-0.321-0.66-0.654-1.02-0.918c-1.072-0.788-2.499-1.069-3.758-1.318c-0.137-0.027-0.225-0.156-0.196-0.288
									c0.029-0.131,0.163-0.218,0.301-0.19c1.312,0.259,2.799,0.552,3.963,1.408c0.39,0.286,0.739,0.632,1.076,0.966
									c0.62,0.614,1.206,1.194,1.996,1.393c0.135,0.035,0.216,0.168,0.179,0.298C183.996,218.27,183.968,218.312,183.931,218.343z
									"/>
							</g>
						</g>
					</g>
					<g>
						<g>
							<path style="fill:#62B05F;" d="M176.001,233.962c-0.067,0.028-0.143,0.038-0.22,0.023c-0.2-0.037-0.329-0.224-0.289-0.417
								c1.131-5.407-0.036-11.018-1.164-16.444c-1.157-5.564-2.354-11.316-1.114-16.924c0.342-1.548,0.87-3.067,1.38-4.537
								c0.418-1.202,0.849-2.446,1.172-3.688c0.05-0.191,0.25-0.308,0.448-0.261c0.198,0.046,0.318,0.239,0.268,0.429
								c-0.33,1.269-0.766,2.526-1.188,3.741c-0.504,1.45-1.025,2.95-1.358,4.459c-1.208,5.464-0.026,11.144,1.116,16.637
								c1.143,5.495,2.325,11.176,1.164,16.723C176.191,233.824,176.108,233.917,176.001,233.962z"/>
						</g>
						<g>
							<path style="fill:#62B05F;" d="M177.753,224.358c1.597-4.926,3.731-10.041,8.057-13.103c0.616-0.436,1.324-0.838,2.084-0.798
								c1.053,0.055,1.885,0.995,2.053,1.995c0.169,1.001-0.199,2.023-0.718,2.909c-1.3,2.221-3.49,3.803-5.381,5.59
								c-1.443,1.363-2.73,2.87-3.929,4.434c-0.592,0.772-1.162,1.559-1.722,2.353c-0.439,0.622-0.967,1.823-1.645,2.168
								C176.371,228.127,177.206,226.045,177.753,224.358z"/>
						</g>
						<g>
							<path style="fill:#648381;" d="M169.651,220.863c-0.987-0.362-2.034-0.564-3.014-0.941c-2.199-0.847-3.952-2.547-5.206-4.479
								c-0.382-0.589-0.719-1.37-0.302-1.942c0.423-0.58,1.322-0.532,2.031-0.354c4.388,1.1,7.618,4.569,10.545,7.892
								c0.805,0.914,1.625,1.885,2.083,3.013c0.383,0.942,0.646,2.738-0.552,1.211C173.768,223.388,171.972,221.713,169.651,220.863
								z"/>
						</g>
						<g>
							<path style="fill:#62B05F;" d="M175.402,213.203c0.358-2.482,0.866-4.968,1.89-7.276c1.024-2.309,2.598-4.445,4.76-5.851
								c0.641-0.417,1.346-0.772,2.109-0.884s1.596,0.048,2.157,0.554c0.636,0.572,0.827,1.497,0.673,2.325
								c-0.154,0.828-0.605,1.577-1.098,2.273c-0.989,1.394-2.174,2.648-3.273,3.964c-2.227,2.67-4.101,5.612-5.565,8.729
								c-0.376,0.801-1.508,4.116-1.957,1.66C174.778,216.957,175.152,214.934,175.402,213.203z"/>
						</g>
						<g>
							<path style="fill:#62B05F;" d="M170.942,211.414c-1.063-0.753-2.132-1.508-3.307-2.087c-1.244-0.612-2.586-1.015-3.921-1.414
								c-1.206-0.361-2.412-0.722-3.618-1.083c-1.021-0.306-2.077-0.631-2.86-1.329c-0.783-0.698-1.206-1.884-0.683-2.787
								c0.407-0.704,1.288-1.062,2.124-1.067c0.835-0.005,1.638,0.285,2.401,0.608c2.758,1.166,5.282,2.824,7.438,4.844
								c1.088,1.02,2.083,2.132,2.967,3.321c0.67,0.901,2.152,2.582,2.156,3.692C172.892,213.014,172.053,212.201,170.942,211.414z"
								/>
						</g>
						<g>
							<path style="fill:#62B05F;" d="M168.694,200.326c-1.892-1.433-3.987-2.612-5.818-4.117c-1.669-1.371-3.104-3.005-4.232-4.817
								c-0.219-0.351-0.431-0.726-0.451-1.136c-0.04-0.84,0.785-1.547,1.649-1.679c0.864-0.132,1.732,0.173,2.514,0.545
								c3.118,1.485,5.546,4.09,7.25,7.008c0.855,1.464,1.543,3.014,2.125,4.598c0.294,0.799,1.69,3.734,1.116,4.354
								C171.704,203.212,170.49,201.686,168.694,200.326z"/>
						</g>
						<g>
							<path style="fill:#62B05F;" d="M176.429,195.994c1.966-2.222,4.264-4.549,7.268-4.9c1.407-0.165,3.098,0.344,3.499,1.649
								c0.324,1.056-0.365,2.204-1.31,2.833c-0.945,0.63-2.1,0.87-3.208,1.158c-2.863,0.745-5.615,1.896-8.138,3.403
								c-0.406,0.243-0.772,0.517-1.068,0.875C173.661,199.103,175.187,197.397,176.429,195.994z"/>
						</g>
						<g>
							<path style="fill:#62B05F;" d="M168.026,188.025c-0.777-0.634-1.587-1.269-2.096-2.118c-0.509-0.85-0.653-1.982-0.072-2.794
								c0.434-0.607,1.214-0.937,1.977-0.954c0.764-0.017,1.509,0.249,2.156,0.637c2.12,1.27,3.152,3.688,3.814,6.009
								c0.424,1.485,0.75,2.996,0.976,4.521c0.05,0.336,0.475,1.942,0.24,2.201c-0.482,0.53-0.793-0.346-0.962-0.654
								C172.568,192.165,170.44,189.997,168.026,188.025z"/>
						</g>
					</g>
					<g>
						<g>
							<path style="fill:#62B05F;" d="M196.92,244.094c-0.048-0.018-0.092-0.049-0.123-0.093c-0.082-0.115-0.051-0.272,0.068-0.351
								c3.357-2.23,5.657-5.66,7.882-8.977c2.281-3.401,4.639-6.919,8.154-9.199c0.971-0.63,2.02-1.156,3.035-1.665
								c0.831-0.417,1.689-0.848,2.493-1.33c0.123-0.074,0.285-0.039,0.361,0.08c0.076,0.118,0.038,0.274-0.086,0.348
								c-0.82,0.493-1.688,0.928-2.528,1.349c-1.002,0.503-2.038,1.022-2.984,1.636c-3.425,2.222-5.753,5.695-8.006,9.053
								c-2.252,3.359-4.582,6.833-8.026,9.12C197.088,244.114,196.997,244.122,196.92,244.094z"/>
						</g>
						<g>
							<path style="fill:#62B05F;" d="M202.753,240.011c3.345-1.761,7.059-3.363,10.823-2.868c0.535,0.071,1.101,0.202,1.465,0.585
								c0.504,0.53,0.44,1.409,0.01,2.001c-0.43,0.593-1.143,0.941-1.862,1.147c-1.801,0.518-3.723,0.283-5.6,0.296
								c-1.432,0.01-2.859,0.168-4.271,0.397c-0.697,0.113-1.391,0.244-2.083,0.384c-0.543,0.109-1.428,0.472-1.948,0.325
								C200.113,241.283,201.607,240.615,202.753,240.011z"/>
						</g>
						<g>
							<path style="fill:#62B05F;" d="M200.457,234.357c-0.313-0.656-0.738-1.258-1.039-1.92c-0.675-1.483-0.686-3.189-0.325-4.777
								c0.11-0.484,0.342-1.045,0.848-1.138c0.512-0.095,0.942,0.358,1.209,0.788c1.652,2.656,1.498,5.974,1.266,9.072
								c-0.064,0.852-0.149,1.741-0.499,2.537c-0.292,0.665-1.084,1.71-0.903,0.357
								C201.238,237.614,201.192,235.899,200.457,234.357z"/>
						</g>
						<g>
							<path style="fill:#62B05F;" d="M207.311,233.176c1.46-1.1,2.997-2.131,4.704-2.825c1.706-0.694,3.603-1.038,5.421-0.726
								c0.539,0.092,1.078,0.247,1.521,0.553c0.444,0.307,0.782,0.786,0.805,1.312c0.027,0.596-0.353,1.161-0.857,1.511
								c-0.504,0.351-1.118,0.519-1.727,0.64c-1.218,0.242-2.463,0.319-3.697,0.469c-2.501,0.305-4.964,0.918-7.31,1.816
								c-0.603,0.231-2.883,1.389-1.844-0.083C205.061,234.802,206.292,233.944,207.311,233.176z"/>
						</g>
						<g>
							<path style="fill:#62B05F;" d="M205.977,230.133c-0.15-0.892-0.301-1.789-0.597-2.646c-0.314-0.907-0.785-1.753-1.254-2.595
								c-0.424-0.76-0.847-1.52-1.271-2.28c-0.358-0.643-0.725-1.314-0.761-2.045c-0.036-0.731,0.361-1.54,1.09-1.753
								c0.569-0.166,1.198,0.071,1.623,0.466c0.425,0.396,0.681,0.928,0.901,1.457c0.794,1.913,1.216,3.966,1.265,6.028
								c0.025,1.041-0.045,2.085-0.21,3.116c-0.125,0.781-0.242,2.349-0.812,2.919C206.139,231.883,206.134,231.066,205.977,230.133
								z"/>
						</g>
						<g>
							<path style="fill:#62B05F;" d="M210.552,223.382c-0.219-1.636-0.67-3.24-0.821-4.883c-0.137-1.498-0.022-3.019,0.341-4.486
								c0.07-0.284,0.156-0.577,0.357-0.797c0.413-0.449,1.194-0.418,1.699-0.073c0.505,0.344,0.787,0.915,0.99,1.478
								c0.812,2.248,0.698,4.74,0.056,7.048c-0.322,1.158-0.773,2.28-1.294,3.368c-0.263,0.549-1.069,2.719-1.678,2.762
								C210.587,226.296,210.759,224.935,210.552,223.382z"/>
						</g>
						<g>
							<path style="fill:#62B05F;" d="M216.694,224.852c2.139-0.201,4.499-0.296,6.199,0.957c0.796,0.587,1.389,1.654,0.919,2.514
								c-0.38,0.695-1.32,0.955-2.122,0.826c-0.802-0.128-1.51-0.556-2.219-0.937c-1.831-0.984-3.815-1.707-5.868-2.139
								c-0.33-0.069-0.657-0.103-0.991-0.061C213.693,225.125,215.344,224.979,216.694,224.852z"/>
						</g>
						<g>
							<path style="fill:#62B05F;" d="M216.551,216.764c-0.066-0.695-0.149-1.407,0.032-2.085c0.18-0.678,0.691-1.327,1.403-1.465
								c0.533-0.104,1.096,0.099,1.491,0.454c0.395,0.356,0.635,0.848,0.762,1.354c0.418,1.662-0.306,3.392-1.167,4.897
								c-0.551,0.962-1.164,1.892-1.835,2.781c-0.148,0.196-0.761,1.221-1.013,1.242c-0.516,0.041-0.222-0.555-0.15-0.794
								C216.715,221.05,216.756,218.925,216.551,216.764z"/>
						</g>
					</g>
					<path style="fill:#FFBF46;" d="M202.034,295.456c6.657-17.339,9.911-35.983,9.906-54.428
						c-5.529-2.634-11.058-5.268-16.588-7.903c-5.096-2.428-10.214-4.868-14.884-7.986c-9.68-6.463-17.061-15.577-23.979-24.753
						c-5.22,21.581-10.872,42.812-11.702,64.928c10.595,9.503,19.832,18.229,31.486,26.507c3.783,2.687,7.69,5.342,12.149,6.792
						C193.212,300.17,200.274,300.038,202.034,295.456z"/>
					<path style="fill:#EDB241;" d="M195.352,233.125c-1.465-0.698-2.93-1.399-4.387-2.114c-1.245,13.721-4.311,27.338-9.262,40.234
						c-1.759,4.583-8.821,4.715-13.611,3.158c-4.46-1.45-8.366-4.105-12.149-6.792c-3.816-2.711-7.371-5.471-10.802-8.289
						c-0.151,1.992-0.278,3.987-0.354,5.993c10.595,9.503,19.832,18.229,31.486,26.507c3.783,2.687,7.69,5.342,12.149,6.792
						c4.79,1.557,11.852,1.425,13.611-3.157c6.657-17.339,9.911-35.983,9.906-54.428
						C206.411,238.393,200.881,235.759,195.352,233.125z"/>
				</g>
				<path style="fill:#E58242;" d="M224.665,239.145c0.871-0.179-6.088,0.996-8.857,1.539c-0.688-6.166-2.796-12.392-3.484-18.558
					c-0.418-3.745-0.835-7.49-1.164-11.244c-1.39-15.877-1.206-32.035-5.383-47.436c5.174,9.445,7.315,19.553,9.303,30.075
					C217.9,208.443,221.846,224.223,224.665,239.145z"/>
			</g>
			<g>
				<g>
					<g>
						<path style="fill:#648381;" d="M166.74,271.619l-12.794-9.617c-0.629-0.473-1.053-1.386-1.111-2.395
							c-0.058-1.008,0.258-1.96,0.829-2.496l8.165-7.658l2.222,4.789l-5.396,5.061l9.743,7.324L166.74,271.619z"/>
					</g>
					<g>
						<g>
							<polygon style="fill:#648381;" points="162.688,259.282 166.161,248.828 158.036,249.252 							"/>
						</g>
					</g>
				</g>
				<g>
					<g>
						<path style="fill:#648381;" d="M181.68,282.849l-9.802-7.368l1.659-4.992l6.751,5.075l-0.848-14.743l3.88-0.203l1.129,19.634
							c0.058,1.009-0.258,1.96-0.829,2.496C183.049,283.284,182.31,283.322,181.68,282.849z"/>
					</g>
					<g>
						<g>
							<polygon style="fill:#648381;" points="177.285,269.894 169.16,270.319 173.812,280.348 							"/>
						</g>
					</g>
				</g>
				<g>
					<g>
						<path style="fill:#648381;" d="M168.439,250.128l-2.221-4.789l12.624-11.84c0.571-0.536,1.311-0.574,1.94-0.102l0,0
							c0.629,0.473,1.053,1.386,1.111,2.395l0.999,17.373l-3.88,0.203l-0.718-12.482L168.439,250.128z"/>
					</g>
					<g>
						<g>
							<polygon style="fill:#648381;" points="176.627,248.926 181.279,258.954 184.753,248.501 							"/>
						</g>
					</g>
				</g>
			</g>
			<g>
				<g>
					<path style="fill:#FFDEC9;" d="M314.696,158.387c1.569,3.38,2.689,8.198-0.631,10.107c-3.032,1.743-6.696-0.829-9.057-3.328
						c-11.552-12.226-19.941-26.859-28.222-41.344c-2.745-4.801-8.647-15.712-2.181-20.268c4.908-3.457,11.383,1.803,14.282,5.381
						C300.104,122.785,307.282,142.413,314.696,158.387z"/>
					<path style="fill:#E4FDE1;" d="M256.943,120.417c0.467,7.35,4.718,13.886,8.842,20.066c3.954,5.924,7.907,11.848,11.861,17.771
						c2.946,4.413,5.914,8.87,7.811,13.792c1.897,4.922,2.664,10.414,1.104,15.466c6.393-4.601,7.698-14.16,6.319-21.693
						c-1.379-7.533-5.396-14.313-8.867-21.182c-3.471-6.869-6.508-14.337-5.702-21.96c0.525-4.969,2.658-9.655,5.045-14.102
						c0.706-1.316,2.273-2.83,3.481-1.926c-4.012-3.856-8.277-7.468-12.761-10.809c-1.747-1.302-3.906-2.632-6.024-1.989
						c-1.123,0.341-1.996,1.187-2.777,2.037C259.743,101.918,256.434,112.418,256.943,120.417z"/>
					<path style="fill:#BEEDB9;" d="M291.536,173.651c-1.897-4.922-4.865-9.378-7.811-13.792
						c-3.954-5.924-7.907-11.848-11.861-17.771c-4.124-6.18-8.375-12.716-8.842-20.066c-0.509-7.998,2.8-18.498,8.331-24.529
						c0.689-0.751,1.451-1.497,2.392-1.896c-1.685-1.217-3.708-2.35-5.695-1.747c-1.123,0.341-1.996,1.187-2.777,2.037
						c-5.531,6.03-8.839,16.531-8.331,24.529c0.467,7.35,4.718,13.886,8.842,20.066c3.954,5.924,7.907,11.848,11.861,17.771
						c2.945,4.413,5.914,8.87,7.811,13.792c1.897,4.922,2.664,10.414,1.104,15.466c3.299-2.375,5.235-6.073,6.154-10.129
						C292.402,176.114,292.004,174.865,291.536,173.651z"/>
					<path style="fill:#8ACB88;" d="M260.607,112.973c1.815-4.447,5.874-7.651,9.904-10.449c4.03-2.798,8.381-5.047,11.069-9.068
						c-6.403-7.169-16.62-14.981-26.389-16.178c-3.07,13.578-2.583,30.634,0.475,44.176c0.293,1.295,0.725,2.732,1.934,3.363
						C258.086,120.613,258.997,116.916,260.607,112.973z"/>
					<path style="fill:#62B05F;" d="M263.755,99.984c4.03-2.798,8.381-5.047,11.069-9.068c-4.293-4.807-10.301-9.899-16.739-13.096
						c-0.967-0.239-1.933-0.424-2.895-0.541c-2.283,10.097-2.596,22.116-1.35,33.184c0.004-0.01,0.007-0.02,0.012-0.03
						C255.667,105.986,259.725,102.781,263.755,99.984z"/>
					<g>
						<path style="fill:#62B05F;" d="M260.613,110.626l-0.944-0.199c0.583-2.486,1.974-4.812,3.914-6.549
							c1.788-1.602,3.98-2.681,6.1-3.724c0.722-0.355,1.443-0.71,2.15-1.086c2.512-1.336,5.493-3.195,6.533-5.827
							c-2.794-2.202-5.66-4.386-8.524-6.493c-1.272-0.937-2.524-1.845-3.863-2.669c-1.962-1.205-4.072-2.194-6.27-2.94l0.326-0.879
							c2.268,0.77,4.444,1.79,6.468,3.034c1.369,0.842,2.692,1.801,3.929,2.713c2.961,2.179,5.925,4.439,8.809,6.717l0.253,0.199
							l-0.1,0.301c-1.032,3.104-4.336,5.189-7.1,6.659c-0.715,0.38-1.446,0.74-2.177,1.099c-2.061,1.014-4.191,2.062-5.879,3.575
							C262.443,106.167,261.155,108.323,260.613,110.626z"/>
					</g>
					<path style="fill:#8ACB88;" d="M267.709,75.347c0.181,1.556,0.453,3.136,1.206,4.521c1.356,2.493,4.097,4.022,6.891,4.861
						c-0.968-2.037-0.988-4.384-1.786-6.489c-0.595-1.57-1.604-2.956-2.602-4.322c-0.732-1.003-2.663-4.772-3.917-4.893
						C266.853,70.914,267.746,73.378,267.709,75.347z"/>
				</g>
				<path style="fill:none;stroke:#575761;stroke-width:0.9485;stroke-miterlimit:10;" d="M260.622,119.567
					c0.234,8.573,4.607,16.503,9.621,23.562c5.014,7.06,10.813,13.686,14.548,21.45"/>
			</g>
			<g>
				<path style="fill:#62B05F;" d="M219.701,183.403c-1.409-12.928,5.065-25.558,10.267-35.706l0.867,0.408
					c-5.146,10.04-11.551,22.536-10.171,35.195L219.701,183.403z"/>
			</g>
			<g>
				<path style="fill:#FFC6A1;" d="M268.964,58.576c1.798,0.121,3.048,1.79,2.769,3.506l0,0c-0.43,2.643-1.059,5.598-3.382,7.079
					c-0.956,0.61-2.467,0.773-3.061-0.164c-0.311-0.491-0.252-1.114-0.17-1.686c0.334-2.324,0.811-4.751,1.666-6.96
					C267.349,58.896,268.049,58.514,268.964,58.576z"/>
				<path style="fill:#FFDEC9;" d="M243.814,81.558c1.183,0.821,2.439,1.469,3.762,1.874c3.561,1.09,7.134-0.675,9.745-2.843
					c11.161-9.267,14.567-24.812,9.384-37.603c-2.239-5.525-7.275-10.166-13.479-11.666c-8.176-1.976-15.833,1.113-19.844,7.936
					c-4.527,7.7-3.896,17.761-1.178,25.883C234.32,71.465,237.992,77.518,243.814,81.558z"/>
				<path style="fill:#606060;" d="M265.603,53.968c-0.306,1.061-1.118,1.979-2.158,2.44c-0.607,0.269-1.272,0.385-1.933,0.474
					c-1.739,0.234-3.512,0.304-5.261,0.179c-2.1-0.15,0.162-1.203,1.032-1.356C260.037,55.218,263.198,55.622,265.603,53.968z"/>
				<path style="fill:#606060;" d="M256.576,58.548c0.343,0.719,1.224,1.06,2.047,1.101c0.448,0.022,0.928-0.035,1.277-0.309
					c0.342-0.268,0.496-0.693,0.635-1.095c0.207-0.598,0.415-1.241,0.238-1.845c-0.084-0.285-3.267,0.013-3.622,0.087
					C256.106,56.704,256.148,57.649,256.576,58.548z"/>
				<path style="fill:#606060;" d="M263.62,48.402c0.676-0.066,1.368-0.094,2.024,0.073c-3.728-1.251-8.175-0.27-10.99,2.424
					c-0.263,0.252-0.38,0.62,0.048,0.72c0.25,0.058,0.763-0.419,0.959-0.539c0.822-0.503,1.681-0.946,2.574-1.32
					C259.945,49.046,261.768,48.583,263.62,48.402z"/>
				<path style="fill:#FFC6A1;" d="M242.14,80.284c0.625-5.202,1.718-10.333,3.6-15.293c3.624-9.547,10.613-18.482,20.388-23.272
					c-2.175-4.389-6.128-8.065-10.977-9.812c-4.466-0.237-8.986,0.667-13.149,2.196c-3.048,1.12-5.986,2.623-8.32,4.687
					c-0.099,0.157-0.206,0.306-0.301,0.467c-4.527,7.7-3.896,17.761-1.178,25.883C234.109,70.833,237.28,76.301,242.14,80.284z"/>
				<path style="fill:none;stroke:#575761;stroke-width:1.0596;stroke-miterlimit:10;" d="M251.45,54.594
					c-0.045,4.58-0.06,9.314,1.813,13.512c0.089,0.199,0.184,0.412,0.141,0.626c-0.047,0.233-0.248,0.407-0.452,0.542
					c-0.819,0.54-1.888,0.712-2.839,0.457"/>
				<path style="fill:#414149;" d="M267.396,36.036c-11.83,4.136-20.198,14.141-24.287,24.915c-3.371,8.883-4.215,18.314-4.36,27.72
					c-0.019,1.236-1.772,1.612-2.317,0.495c-2.023-4.149-4.408-7.809-6.786-12.347c-4.098-7.817-5.448-17.873-4.853-26.511
					c0.346-5.02,1.37-10.263,4.875-14.203c2.483-2.791,6.02-4.69,9.702-6.043c4.762-1.75,9.992-2.681,15.073-2.022
					C259.526,28.702,264.57,32.201,267.396,36.036z"/>
				<g>
					<path style="fill:#D66C26;" d="M246.245,75.284c0.57,0.175,1.141,0.347,1.713,0.513c2.526,0.021,5.59-0.345,7.902-0.78
						c-0.57-0.496-1.117-1.043-1.904-1.386c-1.512-0.659-3.878-0.609-5.525-0.144c-0.881,0.249-2.758,1.054-2.988,1.641
						C245.716,75.155,245.985,75.204,246.245,75.284z"/>
					<path style="fill:#E58242;" d="M255.86,75.016c-1.847-0.166-3.673-0.152-5.527-0.1c-0.844,0.023-1.686,0.077-2.529,0.125
						c-0.429,0.024-2.22,0.319-2.52,0.023c1.167,1.151,2.832,1.451,4.487,1.7c1.117,0.168,2.279,0.3,3.367-0.007
						C254.215,76.454,255.915,75.021,255.86,75.016z"/>
				</g>
				<path style="fill:#F5CDB3;" d="M258.902,62.352c1.204-0.136,2.422-0.153,3.629-0.05c0.427,0.037,0.89,0.106,1.18,0.408
					c0.37,0.385,0.303,1.03-0.02,1.457c-0.324,0.427-0.839,0.676-1.35,0.866c-1.121,0.416-2.324,0.622-3.522,0.603
					C256.022,65.591,256.388,62.637,258.902,62.352z"/>
				<path style="fill:#505058;" d="M248.699,43.27c-1.177,1.689-2.353,3.378-3.53,5.067c-2.398,3.442-4.822,6.934-6.231,10.845
					c0.114-2.35-0.121-4.714-0.694-6.996c-0.889,0.909-1.636,1.944-2.21,3.062c-0.498-2.428-1.316-4.794-2.427-7.023
					c-0.639,0.908-1.278,1.816-1.917,2.724c-0.102,0.145-0.257,0.31-0.43,0.258c-0.138-0.041-0.192-0.196-0.228-0.33
					c-0.54-2.056-1.079-4.112-1.619-6.167c-0.865,1.145-1.416,2.475-1.958,3.789c0.341-0.828-0.221-2.829-0.184-3.789
					c0.043-1.113-0.004-2.61,0.554-3.624c1.222-2.22,3.643-0.413,5.344,0.174C238.119,42.966,243.488,43.132,248.699,43.27z"/>
			</g>
			<g>
				<g>
					<path style="fill:#FFDEC9;" d="M288.168,203.739c-5.02,5.8-11.06,12.058-18.122,11.342c-0.13-4.26,1.178-8.42,2.69-12.34
						c7.043-18.25,19.067-33.997,33.948-44.462c1.578-1.109,3.553-2.181,5.176-1.205c0.806,0.485,1.342,1.395,1.777,2.31
						c4.322,9.082,1.109,13.636-4.486,20.109C302.162,187.579,295.163,195.656,288.168,203.739z"/>
					<path style="fill:#8ACB88;" d="M316.885,163.664c-3.468,17.745-12.084,34.564-24.618,48.052
						c-0.905,0.973-2.432,1.986-3.449,1.134c-0.495-0.414-0.594-1.104-0.682-1.731c-1.038-7.378-5.026-14.317-10.96-19.068
						c4.17-11.603,9.206-22.86,16.12-33.191c-5.118-7.762-9.813-15.784-14.06-24.022c-1.74-3.374-3.439-6.927-3.44-10.703
						c-0.002-7.187,2.376-17.311,10.429-17.831C292.426,111.401,303.219,131.066,316.885,163.664z"/>
					<path style="fill:#62B05F;" d="M277.218,114.739c-0.006,0-0.011,0.001-0.017,0.002c-1.011,3.054-1.406,6.468-1.405,9.395
						c0.001,3.776,1.7,7.329,3.44,10.703c4.247,8.238,8.942,16.26,14.06,24.022c-6.915,10.331-11.95,21.589-16.12,33.191
						c5.934,4.751,9.923,11.69,10.96,19.068c0.088,0.627,0.188,1.317,0.682,1.731c0.127,0.106,0.262,0.184,0.403,0.236
						c9.309-12.099,15.772-26.219,18.658-40.988C294.213,139.501,283.419,119.835,277.218,114.739z"/>
					<g>
						<path style="fill:#4E9C4A;" d="M301.417,172.903c-0.893,0-1.85-0.3-2.734-0.878c-0.802-0.525-1.464-1.197-2.104-1.847
							c-0.243-0.246-0.486-0.492-0.735-0.73c-1.354-1.288-2.921-2.324-4.653-3.081l0.404-0.849c1.836,0.802,3.496,1.9,4.931,3.265
							c0.257,0.244,0.507,0.498,0.757,0.75c0.633,0.643,1.233,1.25,1.949,1.719c0.955,0.624,1.989,0.854,2.837,0.642
							c-0.334-3.363-2.683-6.424-5.94-7.691c-0.811-0.315-2.037-0.791-2.109-1.902l-0.03-0.463l12.496-0.88
							c0.352-0.025,0.424-0.078,0.438-0.099c0.015-0.021,0.018-0.142-0.099-0.345c-0.406-0.705-1.231-1.25-2.521-1.669
							c-3.128-1.014-6.668-0.874-9.714,0.381l-0.615,0.254l-0.055-0.639c-0.153-1.763,1.68-2.987,2.665-3.644
							c1.583-1.056,3.125-2.211,4.58-3.432c0.983-0.824,1.465-1.553,1.436-2.173c-0.006,0-0.012,0-0.018,0
							c-0.973,0-1.939,0.655-2.772,1.316c-2.135,1.697-4.11,3.6-5.868,5.656l-0.746-0.589c1.799-2.103,3.818-4.048,6.001-5.784
							c1.101-0.874,2.429-1.732,3.896-1.49l0.288,0.048l0.088,0.268c0.35,1.065-0.213,2.224-1.671,3.448
							c-1.483,1.244-3.054,2.42-4.667,3.496c-0.902,0.602-1.847,1.296-2.152,2.12c3.083-1.07,6.549-1.12,9.638-0.117
							c1.527,0.495,2.525,1.18,3.053,2.095c0.281,0.487,0.303,0.951,0.061,1.307c-0.314,0.46-0.901,0.501-1.183,0.521l-11.324,0.797
							c0.271,0.25,0.741,0.45,1.27,0.655c3.708,1.442,6.347,4.998,6.567,8.848l0.018,0.327l-0.313,0.129
							C302.35,172.818,301.893,172.903,301.417,172.903z"/>
					</g>
				</g>
				<path style="fill:#546E6C;" d="M285.46,237.789c-3.8-3.229-7.6-6.458-11.401-9.688c-1.051-0.893-2.117-1.804-2.854-2.952
					c-0.807-1.259-1.171-2.73-1.522-4.172c-1.297-5.321-2.594-10.642-3.891-15.963c-0.38-1.558-0.762-3.143-0.66-4.743
					c0.194-3.057,3.712-8.245,7.533-7.555c4.076,0.736,4.581,8.851,5.383,11.92C280.912,215.599,283.385,226.659,285.46,237.789z"/>
			</g>
		</g>
		<path style="fill:#E4FDE1;" d="M269.839,69.605c-0.017,0.874-0.767,1.575-1.675,1.565c-0.908-0.01-1.632-0.727-1.615-1.602
			c0.016-0.874,0.766-1.575,1.675-1.565C269.132,68.014,269.855,68.731,269.839,69.605z"/>
	</g>
</g>
</svg>
